<svg xmlns="http://www.w3.org/2000/svg" xmlns:xlink="http://www.w3.org/1999/xlink" width="1393.55" height="1168.23"><g transform="translate(0 0)"><path d="M0 0h1393.55v1168.23H0z" fill="#fff" fill-opacity=".6"/><path d="M747.9 233.4c0 9.33-7.55 16.88-16.87 16.88s-16.87-7.55-16.87-16.87c0-9.3 7.55-16.87 16.87-16.87s16.88 7.56 16.88 16.88z" stroke="#000" stroke-opacity="0" stroke-width="2" fill="#4397ff"/><use xlink:href="#a" transform="matrix(1,0,0,1,719.1575984038451,221.53280513879452) translate(5.8321604938271605 19.27777777777778)"/><path d="M1025.92 720.04c0 9.32-7.55 16.88-16.87 16.88s-16.87-7.56-16.87-16.88 7.55-16.87 16.87-16.87 16.88 7.55 16.88 16.87z" stroke="#000" stroke-opacity="0" stroke-width="2" fill="#4397ff"/><use xlink:href="#b" transform="matrix(1,0,0,1,997.17751227869,708.1688304743149) translate(5.8321604938271605 19.27777777777778)"/><path d="M747.9 386.64c0 9.32-7.55 16.88-16.87 16.88s-16.87-7.56-16.87-16.88c0-9.3 7.55-16.87 16.87-16.87s16.88 7.56 16.88 16.87z" stroke="#000" stroke-opacity="0" stroke-width="2" fill="#4397ff"/><use xlink:href="#c" transform="matrix(1,0,0,1,719.1575984038451,374.7701727568855) translate(5.8321604938271605 19.27777777777778)"/><path d="M747.9 503.44c0 9.32-7.55 16.88-16.87 16.88s-16.87-7.56-16.87-16.88 7.55-16.87 16.87-16.87 16.88 7.55 16.88 16.87z" stroke="#000" stroke-opacity="0" stroke-width="2" fill="#4397ff"/><use xlink:href="#d" transform="matrix(1,0,0,1,719.1575984038451,491.56971175486467) translate(5.8321604938271605 19.27777777777778)"/><path d="M464.22 477.7c0 9.3-7.55 16.87-16.87 16.87s-16.88-7.56-16.88-16.88c0-9.33 7.56-16.88 16.88-16.88s16.87 7.55 16.87 16.87z" stroke="#000" stroke-opacity="0" stroke-width="2" fill="#4397ff"/><use xlink:href="#e" transform="matrix(1,0,0,1,435.4728735590855,465.8190504868809) translate(5.8321604938271605 19.27777777777778)"/><path d="M464.22 995.94c0 9.32-7.55 16.88-16.87 16.88s-16.88-7.56-16.88-16.88 7.56-16.87 16.88-16.87 16.87 7.55 16.87 16.87z" stroke="#000" stroke-opacity="0" stroke-width="2" fill="#4397ff"/><use xlink:href="#f" transform="matrix(1,0,0,1,435.4728735590855,984.0681336552576) translate(5.8321604938271605 19.27777777777778)"/><path d="M40 155.65h1317.73v974.12H40z" stroke="#000" stroke-opacity="0" fill="#fff"/><path d="M60 299.23h1284.8v741.22H60z" stroke="#000" stroke-opacity="0" fill="#f6f6f7"/><path d="M40 155.65h1317.73v974.12H40z" stroke="#232f3e" stroke-width="2" fill="#fff" fill-opacity="0"/><path d="M40 155.65h56v56H40v-56z" stroke="#fff" stroke-opacity="0" fill="#232f3e"/><path d="M58.22 181.52c-.04.48.05.87.17 1.34.1.38.28.7.48 1.07.04.1.08.2.08.33 0 .2-.12.36-.28.45l-.95.63c-.12.1-.24.13-.37.13-.16 0-.33-.07-.45-.2-.2-.22-.36-.43-.52-.7-.17-.25-.3-.54-.46-.87-1.1 1.36-2.62 2.08-4.4 2.05-1.14.06-2.12-.3-2.95-1.08-.78-.8-1.15-1.76-1.1-2.85-.05-1.22.4-2.28 1.35-3.08 1.07-.84 2.3-1.22 3.66-1.15.57 0 1.02.02 1.6.1.57.08 1.1.2 1.72.32v-1.1c.08-.88-.16-1.67-.7-2.37-.74-.56-1.56-.8-2.46-.7-.53 0-1.03.07-1.6.2-.58.14-1.03.3-1.6.5l-.5.2h-.24c-.2 0-.33-.16-.33-.45v-.75c0-.18.04-.33.12-.5.12-.16.24-.26.4-.33.66-.3 1.2-.5 1.9-.67.77-.2 1.47-.3 2.3-.28 1.47-.13 2.78.26 3.9 1.2.94 1.05 1.35 2.28 1.22 3.68zm-6.07 2.28c.57 0 1.06-.1 1.6-.28.57-.2 1.02-.5 1.44-.96h-.02c.25-.28.42-.57.5-.94.12-.45.16-.84.16-1.3v-.67c-.53-.1-.94-.16-1.44-.2H53c-.8-.08-1.55.12-2.2.58-.54.45-.8 1.04-.75 1.73-.04.6.13 1.15.54 1.6.44.37.97.5 1.55.44zm12 1.6c-.22.02-.42-.03-.6-.15-.15-.17-.23-.35-.32-.6l-3.5-11.5-.1-.62c0-.24.1-.37.36-.37h1.47c.2 0 .37.03.57.14.17.2.25.37.3.6l2.5 9.96 2.38-9.94c0-.24.08-.43.28-.6.17-.12.37-.16.58-.14h1.2c.24-.02.4.02.6.14.17.18.25.36.3.6l2.33 9.94 2.56-10c.04-.22.16-.42.33-.6.15-.1.36-.15.56-.13h1.4c.16 0 .33.12.37.3v.31s0 .2-.12.36L74 184.63c-.05.22-.13.42-.3.6-.2.1-.37.14-.57.13h-1.27c-.25.03-.45-.03-.62-.16-.16-.16-.24-.36-.3-.58l-2.3-9.6-2.28 9.6c-.05.22-.13.42-.3.6-.2.1-.4.17-.6.14zm19.2.38c-.82 0-1.52-.07-2.3-.25-.65-.13-1.14-.3-1.72-.6-.2-.1-.37-.23-.45-.4-.08-.15-.12-.3-.12-.45v-.74c0-.3.12-.47.32-.47h.3l.36.16c.58.23 1.03.4 1.6.5.62.14 1.15.2 1.8.2.8.06 1.5-.1 2.2-.5.48-.3.77-.8.72-1.4.05-.4-.12-.76-.37-1.04-.46-.4-.95-.66-1.52-.8l-2.18-.68c-.94-.26-1.72-.73-2.38-1.5-.5-.65-.74-1.36-.74-2.2 0-.58.12-1.07.4-1.6.3-.5.63-.87 1.08-1.2.5-.4.98-.62 1.6-.78.66-.2 1.2-.27 1.9-.26.32-.03.6-.03.97 0l1 .16.8.24.67.25c.16.1.28.22.45.38.08.16.12.32.12.5v.7c0 .33-.12.48-.37.48-.2-.03-.37-.08-.57-.18-.95-.42-1.8-.6-2.88-.58-.7-.04-1.3.1-1.97.4-.5.3-.74.8-.7 1.36 0 .4.13.76.45 1.05.5.4 1 .65 1.6.82l2.1.67c.94.24 1.7.7 2.3 1.44.5.63.7 1.3.7 2.1 0 .62-.13 1.16-.37 1.72-.3.55-.62.96-1.1 1.32-.5.4-1 .66-1.6.84-.75.24-1.4.34-2.15.35zM86.1 193.14c-5.6 3.8-11.36 5.57-18.15 5.55-8.54.04-15.82-2.74-22.16-8.46-.5-.4 0-1 .48-.67 7.07 4.05 14.02 5.9 22.2 5.9 6.1-.04 11.3-1.1 16.93-3.47.83-.35 1.52.55.7 1.14z" stroke="#fff" stroke-opacity="0" fill="#fff"/><path d="M88.16 190.85c-.64-.8-4.16-.38-5.75-.2-.46 0-.53-.36-.1-.66 2.8-2 7.42-1.42 8-.75.6.67-.14 5.28-2.78 7.5-.4.33-.78.14-.6-.3.54-1.52 1.86-4.83 1.24-5.6z" stroke="#fff" stroke-opacity="0" fill="#fff"/><use xlink:href="#g" transform="matrix(1,0,0,1,111,175.65135197985137) translate(0 12.444444444444446)"/><use xlink:href="#h" transform="matrix(1,0,0,1,111,175.65135197985137) translate(39.66666666666667 12.444444444444446)"/><path d="M56.47 300h1284.8v741.22H56.46z" stroke="#248814" stroke-width="2" fill="#fff" fill-opacity="0"/><path d="M56.47 300h56v56h-56v-56z" stroke="#fff" stroke-opacity="0" fill="#248814"/><path d="M88.23 328.3h-1.18v-1.1c-.12-1.73-1.47-3.07-3.2-3.2-1.9-.13-3.54 1.3-3.67 3.2v1.07H79c-.44 0-.8.36-.8.8v6.13c0 .44.36.8.8.8h9.23c.44 0 .8-.36.8-.8v-6.1c0-.44-.36-.8-.8-.8zm-6.4-1.06c.1-1.03 1-1.77 2-1.67.9.08 1.58.76 1.67 1.67v1.06h-3.72zm5.65 7.08H79.8v-4.42h7.63z" stroke="#fff" stroke-opacity="0" fill="#fff"/><path d="M98.74 325.75c-.08-2.45-1.58-4.48-3.87-5.3-1.58-.47-3.16-.14-4.4.9-.68-1.45-1.47-2.6-2.6-3.76-3.24-3.36-7.94-4.3-12.18-2.4-4.05 1.9-6.42 5.63-6.55 10.05v.7c-3.4.98-5.65 4.08-5.5 7.65v.63c.4 4.28 3.92 7.52 8.2 7.47h26.02s7.4-.63 7.4-8.1c.04-3.9-2.66-7.2-6.53-7.86zm-.96 14.38H71.86c-3.45.06-6.28-2.52-6.58-5.96v-.52c-.16-3.05 1.92-5.7 4.9-6.3.4-.12.64-.48.6-.9-.04-.4-.04-.73 0-1.14.08-3.78 2.12-6.94 5.53-8.6 1.26-.56 2.42-.8 3.84-.84 2.62.08 4.87 1.04 6.7 2.94 1.25 1.3 2.04 2.6 2.62 4.3.04.15.13.28.25.37.38.27.88.2 1.13-.17.84-1.18 2.25-1.67 3.62-1.3 1.8.72 2.88 2.4 2.83 4.32-.08.4.2.82.63.9 3.6.36 6.2 3.55 5.83 7.12-.3 3.13-2.7 5.52-5.82 5.85z" stroke="#fff" stroke-opacity="0" fill="#fff"/><use xlink:href="#i" transform="matrix(1,0,0,1,127.471598970792,320) translate(0 12.444444444444446)"/><path d="M215.7 311.86H611v727.37H215.7z" fill="#fff" fill-opacity="0"/><path d="M227.55 311.86h7.9m7.9 0h7.92m7.9 0h7.9m7.92 0h7.9m7.9 0h7.9m7.9 0h7.92m7.9 0h7.9m7.92 0h7.9m7.9 0h7.9m7.92 0h7.9m7.9 0h7.92m7.9 0h7.9m7.92 0h7.9m7.9 0h7.92m7.9 0h7.9m7.92 0h7.9m7.9 0h7.92m7.9 0h7.9m7.92 0h7.9m7.9 0h7.9m7.92 0h7.9m7.9 0h7.92m7.9 0h7.9m7.92 0h7.9m7.9 0h3.97v4.04m0 8.08v8.08m0 8.08v8.1m0 8.07v8.1m0 8.07v8.08m0 8.1v8.07m0 8.08v8.08m0 8.08v8.1m0 8.07v8.08m0 8.1v8.07m0 8.1v8.07m0 8.08v8.08m0 8.08v8.1m0 8.07v8.08m0 8.08v8.1m0 8.07v8.1m0 8.07v8.08m0 8.08v8.08m0 8.1v8.07m0 8.08V623m0 8.1v8.08m0 8.08v8.08m0 8.08v8.1m0 8.07v8.07m0 8.08v8.08m0 8.08v8.1m0 8.08v8.08m0 8.08v8.08m0 8.1v8.07m0 8.07v8.08m0 8.08v8.1m0 8.07v8.08m0 8.08v8.08m0 8.1v8.07m0 8.1v8.07m0 8.08v8.1m0 8.07v8.08m0 8.08v8.08m0 8.08v8.1m0 8.07v8.1m0 8.07v8.1m0 8.07v8.08m0 8.08v8.08m0 8.1v8.07m0 8.08v8.08m0 8.1v4.03h-3.95m-7.9 0h-7.9m-7.92 0h-7.9m-7.9 0h-7.92m-7.9 0h-7.9m-7.9 0H528m-7.92 0h-7.9m-7.9 0h-7.92m-7.9 0h-7.9m-7.92 0h-7.9m-7.9 0h-7.9m-7.92 0h-7.9m-7.9 0h-7.92m-7.9 0h-7.9m-7.92 0h-7.9m-7.9 0h-7.92m-7.9 0h-7.9m-7.92 0h-7.9m-7.9 0h-7.92m-7.9 0h-7.9m-7.92 0h-7.9m-7.9 0H275m-7.92 0h-7.9m-7.9 0h-7.92m-7.9 0h-7.9m-7.92 0h-3.95v-4.04m0-8.1v-8.07m0-8.08v-8.1m0-8.07v-8.08m0-8.08v-8.08m0-8.08v-8.1m0-8.07v-8.1m0-8.07v-8.1m0-8.07v-8.08m0-8.08v-8.08m0-8.1v-8.07m0-8.08v-8.08m0-8.1v-8.07m0-8.1v-8.07m0-8.08v-8.08m0-8.08v-8.1m0-8.07v-8.08m0-8.08v-8.1m0-8.08v-8.08m0-8.08v-8.08m0-8.08v-8.1m0-8.07v-8.08m0-8.08v-8.08m0-8.1v-8.08m0-8.08v-8.08m0-8.08v-8.08m0-8.1v-8.07m0-8.08v-8.08m0-8.1v-8.07m0-8.08v-8.08m0-8.08v-8.1m0-8.07v-8.1m0-8.07v-8.08m0-8.08v-8.1m0-8.07v-8.08m0-8.08v-8.08m0-8.1v-8.07m0-8.1v-8.07m0-8.08v-8.1m0-8.07v-8.08m0-8.08v-8.08m0-8.1v-8.07m0-8.08v-8.1m0-8.07v-8.1m0-8.07v-8.08m0-8.08v-4.04h3.94" stroke="#147eba" stroke-width="2" fill="none"/><use xlink:href="#j" transform="matrix(1,0,0,1,215.6871523908099,331.85785031482754) translate(128.8641975308642 12.444444444444446)"/><use xlink:href="#k" transform="matrix(1,0,0,1,215.6871523908099,331.85785031482754) translate(214.5925925925926 12.444444444444446)"/><use xlink:href="#l" transform="matrix(1,0,0,1,215.6871523908099,331.85785031482754) translate(255.94444444444446 12.444444444444446)"/><path d="M792.2 311.86h395.3v727.37H792.2z" fill="#fff" fill-opacity="0"/><path d="M804.05 311.86h7.9m7.9 0h7.92m7.9 0h7.92m7.9 0h7.9m7.9 0h7.9m7.92 0h7.9m7.9 0h7.92m7.9 0h7.9m7.9 0h7.92m7.9 0h7.9m7.92 0h7.9m7.9 0h7.92m7.9 0h7.9m7.92 0h7.9m7.9 0h7.92m7.9 0h7.9m7.92 0h7.9m7.9 0h7.92m7.9 0h7.9m7.9 0h7.92m7.9 0h7.9m7.92 0h7.9m7.9 0h7.92m7.9 0h7.9m7.92 0h3.95v4.04m0 8.08v8.08m0 8.08v8.1m0 8.07v8.1m0 8.07v8.08m0 8.1v8.07m0 8.08v8.08m0 8.08v8.1m0 8.07v8.08m0 8.1v8.07m0 8.1v8.07m0 8.08v8.08m0 8.08v8.1m0 8.07v8.08m0 8.08v8.1m0 8.07v8.1m0 8.07v8.08m0 8.08v8.08m0 8.1v8.07m0 8.08V623m0 8.1v8.08m0 8.08v8.08m0 8.08v8.1m0 8.07v8.07m0 8.08v8.08m0 8.08v8.1m0 8.08v8.08m0 8.08v8.08m0 8.1v8.07m0 8.07v8.08m0 8.08v8.1m0 8.07v8.08m0 8.08v8.08m0 8.1v8.07m0 8.1v8.07m0 8.08v8.1m0 8.07v8.08m0 8.08v8.08m0 8.08v8.1m0 8.07v8.1m0 8.07v8.1m0 8.07v8.08m0 8.08v8.08m0 8.1v8.07m0 8.08v8.08m0 8.1v4.03h-3.94m-7.9 0h-7.9m-7.92 0h-7.9m-7.9 0h-7.92m-7.9 0h-7.9m-7.92 0h-7.9m-7.9 0h-7.92m-7.9 0h-7.9m-7.92 0h-7.9m-7.9 0h-7.92m-7.9 0h-7.9m-7.92 0h-7.9m-7.9 0h-7.92m-7.9 0H978m-7.9 0h-7.92m-7.9 0h-7.9m-7.92 0h-7.9m-7.9 0h-7.92m-7.9 0h-7.9m-7.92 0h-7.9m-7.9 0h-7.92m-7.9 0h-7.9m-7.9 0h-7.92m-7.9 0h-7.9m-7.92 0h-7.9m-7.9 0h-3.97v-4.04m0-8.1v-8.07m0-8.08v-8.1m0-8.07v-8.08m0-8.08v-8.08m0-8.08v-8.1m0-8.07v-8.1m0-8.07v-8.1m0-8.07v-8.08m0-8.08v-8.08m0-8.1v-8.07m0-8.08v-8.08m0-8.1v-8.07m0-8.1v-8.07m0-8.08v-8.08m0-8.08v-8.1m0-8.07v-8.08m0-8.08v-8.1m0-8.08v-8.08m0-8.08v-8.08m0-8.08v-8.1m0-8.07v-8.08m0-8.08v-8.08m0-8.1v-8.08m0-8.08v-8.08m0-8.08v-8.08m0-8.1v-8.07m0-8.08v-8.08m0-8.1v-8.07m0-8.08v-8.08m0-8.08v-8.1m0-8.07v-8.1m0-8.07v-8.08m0-8.08v-8.1m0-8.07v-8.08m0-8.08v-8.08m0-8.1v-8.07m0-8.1v-8.07m0-8.08v-8.1m0-8.07v-8.08m0-8.08v-8.08m0-8.1v-8.07m0-8.08v-8.1m0-8.07v-8.1m0-8.07v-8.08m0-8.08v-4.04h3.95" stroke="#147eba" stroke-width="2" fill="none"/><use xlink:href="#j" transform="matrix(1,0,0,1,792.1931163684094,331.85785031482754) translate(128.8641975308642 12.444444444444446)"/><use xlink:href="#k" transform="matrix(1,0,0,1,792.1931163684094,331.85785031482754) translate(214.5925925925926 12.444444444444446)"/><use xlink:href="#m" transform="matrix(1,0,0,1,792.1931163684094,331.85785031482754) translate(255.94444444444446 12.444444444444446)"/><path d="M534.68 74.4H517.6c-.8 0-1.4-.62-1.4-1.4v-2.08c0-7.8 5.13-14.36 12.75-16.2.35-.08.67-.04 1 .14 2.24 1.2 4.67 1.2 6.92 0 .32-.18.64-.22 1-.14 2 .5 3.64 1.2 5.35 2.35l-1.57 2.33c-1.27-.83-2.46-1.38-3.95-1.78-2.83 1.3-5.75 1.3-8.6 0-6.07 1.7-10.1 7-10.1 13.3v.7h15.68z" stroke="#fff" stroke-opacity="0" fill="#666"/><path d="M533.4 58.5c-5.1 0-9.2-4.1-9.2-9.18 0-5.07 4.1-9.18 9.18-9.18 5.1-.06 9.22 4.02 9.28 9.07.04 3.52-1.74 6.5-4.82 8.16-1.43.8-2.8 1.14-4.46 1.14zm0-15.57c-3.56 0-6.46 2.85-6.48 6.4 0 2.4 1.22 4.45 3.34 5.6 2.02 1.07 4.23 1.07 6.25 0 2.15-1.17 3.4-3.26 3.35-5.7-.04-3.5-2.94-6.32-6.47-6.28zM580.7 74.4h-17.1v-2.8h15.7v-.68c0-6.3-4.05-11.6-10.1-13.3-2.86 1.3-5.78 1.3-8.62 0-1.5.4-2.7.98-4 1.87L555 57.16c1.7-1.2 3.36-1.94 5.36-2.45.35-.08.7-.04 1.03.14 2.2 1.2 4.67 1.2 6.92 0 .33-.18.65-.22 1-.14 7.6 1.84 12.76 8.38 12.76 16.2V73c0 .78-.63 1.4-1.38 1.4z" stroke="#fff" stroke-opacity="0" fill="#666"/><path d="M564.85 58.5c-5.12 0-9.25-4.16-9.25-9.27 0-5.1 4.17-9.23 9.3-9.23 5.1 0 9.24 4.16 9.24 9.27 0 3.48-1.76 6.44-4.82 8.1-1.45.78-2.84 1.13-4.47 1.13zm0-15.56c-3.54-.02-6.43 2.83-6.45 6.38-.02 2.4 1.2 4.46 3.34 5.6 2 1.08 4.22 1.08 6.24 0 2.17-1.16 3.42-3.26 3.38-5.73-.08-3.52-3-6.33-6.5-6.26zM571.53 105.9H526.7c-.77 0-1.4-.63-1.4-1.4v-2.98c-.04-10.78 7.1-19.84 17.57-22.38.38-.1.72-.06 1.05.1 3.33 1.8 7 1.8 10.38 0 .28-.16.6-.2 1-.1 10.5 2.52 17.65 11.58 17.6 22.38v2.97c0 .77-.6 1.4-1.37 1.4zm-43.4-2.8h41.97v-1.58c0-9.28-6-17.08-15-19.5-3.95 1.92-8.1 1.92-12.04 0-9 2.42-14.94 10.22-14.94 19.5z" stroke="#fff" stroke-opacity="0" fill="#666"/><path d="M549.15 83.36c-2.22 0-4.1-.48-6.08-1.54-6.1-3.35-8.36-10.98-5.03-17.1 3.36-6.1 11-8.34 17.15-5.02 6.1 3.35 8.34 10.98 5 17.1-1.2 2.22-2.8 3.8-5 5.02-1.96 1.06-3.85 1.54-6.05 1.54zm0-22.05c-3.66-.04-6.8 1.8-8.58 5.03-2.53 4.66-.8 10.5 3.86 13.05 3.03 1.6 6.37 1.6 9.4 0 3.25-1.77 5.12-4.92 5.07-8.6-.08-5.28-4.44-9.54-9.75-9.47z" stroke="#fff" stroke-opacity="0" fill="#666"/><path d="M581.07 74.4h-32.7c-.57 0-1.02-.44-1.02-1v-2.18c-.03-7.86 5.17-14.47 12.8-16.32.3-.08.54-.04.78.08 2.43 1.3 5.1 1.3 7.57 0 .2-.12.45-.16.73-.08 7.67 1.84 12.88 8.44 12.85 16.32v2.18c0 .56-.45 1-1 1zM549.4 72.4h30.63v-1.16c0-6.76-4.38-12.45-10.94-14.2-2.9 1.38-5.9 1.38-8.8 0-6.56 1.75-10.9 7.44-10.9 14.2z" stroke="#fff" stroke-opacity="0" stroke-width=".73" fill="#fff" fill-opacity="0"/><path d="M549.9 74.4h-32.7c-.56 0-1-.44-1-1v-2.18c-.04-7.86 5.17-14.47 12.8-16.32.28-.08.53-.04.77.08 2.43 1.3 5.1 1.3 7.57 0 .2-.12.45-.16.73-.08 7.67 1.84 12.88 8.44 12.85 16.32v2.18c0 .56-.45 1-1 1zm-31.66-2.02h30.63v-1.16c0-6.76-4.38-12.45-10.94-14.2-2.88 1.38-5.9 1.38-8.78 0-6.57 1.75-10.9 7.44-10.9 14.2z" stroke="#fff" stroke-opacity="0" stroke-width=".73" fill="#fff" fill-opacity="0"/><path d="M667.7 115.66h66.84v65.88H667.7v-65.88z" stroke="#fff" stroke-opacity="0" fill="#693cc5"/><path d="M692.02 153.38c1.2.4 2.24.6 3.5.65.8.06 1.5-.13 2.14-.6.52-.47.77-1.06.74-1.75.07-.72-.16-1.36-.7-1.87-.7-.46-1.43-.64-2.27-.57-1 0-1.86.06-2.85.18v-1.24l.34-5.42h6.7v1.46h-5.18l-.24 3.68c.62-.1 1.14-.16 1.78-.16 1.18-.08 2.2.27 3.1 1.02.8.77 1.2 1.75 1.12 2.85.04 1.13-.4 2.13-1.3 2.86-1 .8-2.14 1.16-3.44 1.1-1.27 0-2.35-.2-3.5-.73zM706.6 148.1h.32c1.1-.07 2.07.24 2.92.94.76.7 1.12 1.6 1.06 2.63.04 1.13-.42 2.1-1.3 2.83-1.06.77-2.2 1.12-3.5 1.05-1.23 0-2.28-.23-3.4-.72v-1.45c1.14.4 2.18.6 3.4.64.8.07 1.5-.14 2.16-.6.53-.46.8-1.07.75-1.76 0-1.46-.92-2.2-2.8-2.2-.62 0-1.16.03-1.78.1v-1.2l3.86-4.15h-5.4v-1.48h7.5v1.44z" stroke="#fff" stroke-opacity="0" fill="#fff"/><path d="M701.13 165.3c-.18 0-.33-.04-.47-.14-3.03-1.75-5.88-2.83-9.33-3.5-1.9-.34-8.02-1.77-8.02-6.16 0-1.98.8-3.3 1.8-4.97 1.53-2.24 2.3-4.52 2.42-7.22 0-2.6-.68-4.77-2.14-6.95-.2-.32-.18-.7.07-1.03l1.43-1.76c.28-.33.74-.42 1.14-.2 1.92 1.1 3.77 1.6 6.02 1.63 2.45.02 4.56-.63 6.55-2.06.3-.23.74-.23 1.02 0 2.03 1.43 4.14 2.08 6.6 2.05 2.2-.04 4.1-.56 6-1.64.4-.22.87-.13 1.15.2l1.43 1.75c.25.3.28.73.07 1.05-1.46 2.15-2.1 4.36-2.14 6.96 0 3.13 1.3 5.28 2.43 7.23 1 1.66 1.78 3 1.78 4.97 0 4.4-6.13 5.82-8.02 6.15-3.45.68-6.3 1.72-9.33 3.5-.15.1-.3.14-.48.14zm-13.9-29.43c1.4 2.34 2.03 4.65 2.03 7.34 0 3.62-1.46 6.13-2.67 8.1-.9 1.57-1.5 2.6-1.5 4.1 0 3.13 5.44 4.27 6.5 4.46 3.54.68 6.4 1.76 9.5 3.5 3.1-1.74 5.97-2.82 9.47-3.5 1.1-.2 6.55-1.33 6.55-4.45 0-1.5-.6-2.53-1.53-4.1-1.2-1.97-2.68-4.48-2.68-8.1v.02c.03-2.7.67-5 2.1-7.35l-.57-.7v.02c-2 1-3.96 1.48-6.24 1.48-2.62.03-4.87-.6-7.1-2.02-2.22 1.44-4.5 2.05-7.13 2.02-2.3 0-4.2-.5-6.24-1.5z" stroke="#fff" stroke-opacity="0" fill="#fff"/><path d="M701.14 170.56c-.22 0-.4-.04-.58-.17-3.16-2.25-6.23-3.6-10.02-4.4-7.35-1.32-11.7-5.3-11.7-10.58.08-2.68.8-4.96 2.35-7.2.97-1.63 1.77-3.03 1.77-4.96-.1-2.68-1.2-4.92-3.25-6.72-.4-.26-.5-.83-.18-1.23.05 0 .05-.03.05-.03 0-.1 5.24-6.28 6.44-7.86.14-.25.4-.38.67-.38.32 0 .55.08.77.3 1.7 1.98 3.87 3.08 6.54 3.2 2.5 0 4.47-1.1 6.34-3.5.35-.4.98-.5 1.38-.14l.13.14c1.87 2.45 3.83 3.5 6.32 3.5 2.68-.12 4.86-1.22 6.55-3.2.22-.22.44-.3.76-.3.26 0 .53.13.66.4 1.2 1.57 6.42 7.76 6.46 7.85.13.17.22.4.18.66 0 .26-.13.44-.3.6-2.06 1.8-3.18 4.05-3.26 6.73 0 1.93.84 3.33 1.78 4.96 1.56 2.24 2.27 4.52 2.36 7.2 0 5.27-4.37 9.26-11.7 10.58-3.8.8-6.87 2.1-10.03 4.4-.13.07-.3.16-.5.16zm-19.55-34.8c2.13 2.1 3.2 4.56 3.24 7.5 0 2.4-1.02 4.17-2.05 5.88-1.07 1.9-2.1 3.6-2.1 6.32 0 6.4 7.8 8.3 10.15 8.74 3.88.8 7.04 2.1 10.3 4.3 3.2-2.2 6.36-3.5 10.23-4.3 2.36-.44 10.15-2.33 10.15-8.74 0-2.72-1.02-4.4-2.1-6.32-1-1.76-2.04-3.5-2.04-5.88.03-2.94 1.1-5.4 3.24-7.5-1.2-1.4-3.87-4.62-5.3-6.42-2 1.93-4.36 2.94-7.12 3.03-2.9 0-5.35-1.18-7.13-3.38-1.83 2.2-4.28 3.37-7.18 3.37-2.76-.1-5.12-1.1-7.12-3.03-1.3 1.8-4 5-5.2 6.4z" stroke="#fff" stroke-opacity="0" fill="#fff"/><use xlink:href="#n" transform="matrix(1,0,0,1,637.6988747200085,190.54296452322149) translate(8.29938271604938 13.61111111111111)"/><use xlink:href="#o" transform="matrix(1,0,0,1,637.6988747200085,190.54296452322149) translate(45.373456790123456 13.61111111111111)"/><path d="M121.17 390.02h99.4v18.6h-99.4z" stroke="#000" stroke-opacity="0" fill="#fff" fill-opacity="0"/><use xlink:href="#p" transform="matrix(1,0,0,1,126.17313544810797,395.01596814942667) translate(0 12.444444444444446)"/><path d="M838.96 74.4h-17.08c-.78 0-1.4-.62-1.4-1.4v-2.08c0-7.8 5.13-14.36 12.75-16.2.36-.08.68-.04 1 .14 2.25 1.2 4.68 1.2 6.92 0 .33-.18.65-.22 1-.14 2 .5 3.65 1.2 5.35 2.35l-1.56 2.33c-1.28-.83-2.46-1.38-3.95-1.78-2.85 1.3-5.77 1.3-8.6 0-6.08 1.7-10.1 7-10.1 13.3v.7h15.66z" stroke="#fff" stroke-opacity="0" fill="#666"/><path d="M837.67 58.5c-5.08 0-9.2-4.1-9.2-9.18 0-5.07 4.12-9.18 9.2-9.18 5.08-.06 9.22 4.02 9.28 9.07.03 3.52-1.74 6.5-4.83 8.16-1.42.8-2.8 1.14-4.45 1.14zm0-15.57c-3.54 0-6.45 2.85-6.46 6.4 0 2.4 1.22 4.45 3.35 5.6 2 1.07 4.23 1.07 6.24 0 2.14-1.17 3.37-3.26 3.34-5.7-.04-3.5-2.94-6.32-6.47-6.28zM884.98 74.4h-17.1v-2.8h15.7v-.68c0-6.3-4.04-11.6-10.1-13.3-2.85 1.3-5.77 1.3-8.62 0-1.5.4-2.7.98-3.98 1.87l-1.6-2.32c1.7-1.2 3.36-1.94 5.37-2.45.35-.08.7-.04 1.02.14 2.23 1.2 4.7 1.2 6.94 0 .33-.18.66-.22 1-.14 7.62 1.84 12.76 8.38 12.76 16.2V73c0 .78-.62 1.4-1.38 1.4z" stroke="#fff" stroke-opacity="0" fill="#666"/><path d="M869.14 58.5c-5.12 0-9.25-4.16-9.25-9.27 0-5.1 4.16-9.23 9.27-9.23 5.12 0 9.26 4.16 9.26 9.27 0 3.48-1.76 6.44-4.82 8.1-1.44.78-2.83 1.13-4.46 1.13zm0-15.56c-3.54-.02-6.44 2.83-6.46 6.38 0 2.4 1.2 4.46 3.34 5.6 2 1.08 4.23 1.08 6.25 0 2.17-1.16 3.4-3.26 3.38-5.73-.08-3.52-3-6.33-6.5-6.26zM875.8 105.9h-44.83c-.76 0-1.38-.63-1.38-1.4v-2.98c-.05-10.78 7.1-19.84 17.56-22.38.38-.1.7-.06 1.05.1 3.34 1.8 7 1.8 10.38 0 .3-.16.62-.2 1-.1 10.52 2.52 17.66 11.58 17.6 22.38v2.97c0 .77-.6 1.4-1.37 1.4zm-43.4-2.8h41.98v-1.58c0-9.28-6-17.08-15-19.5-3.94 1.92-8.08 1.92-12.03 0-9 2.42-14.95 10.22-14.95 19.5z" stroke="#fff" stroke-opacity="0" fill="#666"/><path d="M853.44 83.36c-2.22 0-4.12-.48-6.1-1.54-6.1-3.35-8.34-10.98-5-17.1 3.35-6.1 11-8.34 17.13-5.02 6.1 3.35 8.36 10.98 5.03 17.1-1.2 2.22-2.8 3.8-5.03 5.02-1.94 1.06-3.83 1.54-6.03 1.54zm0-22.05c-3.66-.04-6.82 1.8-8.6 5.03-2.5 4.66-.8 10.5 3.88 13.05 3.03 1.6 6.36 1.6 9.4 0 3.25-1.77 5.12-4.92 5.06-8.6-.07-5.28-4.44-9.54-9.74-9.47z" stroke="#fff" stroke-opacity="0" fill="#666"/><path d="M885.36 74.4h-32.72c-.55 0-1-.44-1-1v-2.18c-.04-7.86 5.17-14.47 12.8-16.32.3-.08.53-.04.77.08 2.45 1.3 5.12 1.3 7.6 0 .2-.12.44-.16.72-.08 7.67 1.84 12.88 8.44 12.84 16.32v2.18c0 .56-.45 1-1 1zM853.7 72.4h30.62v-1.16c0-6.76-4.38-12.45-10.94-14.2-2.9 1.38-5.9 1.38-8.8 0-6.55 1.75-10.9 7.44-10.9 14.2z" stroke="#fff" stroke-opacity="0" stroke-width=".73" fill="#fff" fill-opacity="0"/><path d="M854.2 74.4h-32.72c-.55 0-1-.44-1-1v-2.18c-.04-7.86 5.17-14.47 12.8-16.32.3-.08.53-.04.78.08 2.43 1.3 5.1 1.3 7.57 0 .2-.12.45-.16.73-.08 7.67 1.84 12.88 8.44 12.85 16.32v2.18c0 .56-.45 1-1 1zm-31.67-2.02h30.63v-1.16c0-6.76-4.38-12.45-10.94-14.2-2.88 1.38-5.9 1.38-8.8 0-6.55 1.75-10.9 7.44-10.9 14.2z" stroke="#fff" stroke-opacity="0" stroke-width=".73" fill="#fff" fill-opacity="0"/><path d="M238.6 665.23a6 6 0 0 1 6-6h338.93a6 6 0 0 1 6 6v348a6 6 0 0 1-6 6H244.6a6 6 0 0 1-6-6z" fill="#147eba" fill-opacity=".13"/><path d="M238.6 659.23h56v56h-56v-56z" stroke="#fff" stroke-opacity="0" fill="#147eba"/><path d="M281.98 681.4c-.16-.16-.35-.24-.56-.24h-5.15v-5.57c-.03-2.55-.97-4.72-2.84-6.42-1.9-1.83-4.15-2.75-6.77-2.75-2.65 0-4.9.84-6.8 2.62-1.9 1.7-2.87 3.87-2.9 6.4v5.67h-5.15c-.24 0-.43.08-.6.25h.02c-.16.16-.22.33-.22.58v25.3c0 .4.34.78.8.78h29.6c.45 0 .8-.37.8-.8v-25.28c0-.2-.06-.37-.22-.54zm-23.46-5.9c.03-2.12.8-3.87 2.37-5.28 1.6-1.5 3.5-2.2 5.73-2.2 2.2 0 4.12.74 5.7 2.24 1.54 1.4 2.32 3.2 2.32 5.33v5.56H258.5zm22.1 30.95h-28.03v-23.7h28z" stroke="#fff" stroke-opacity="0" fill="#fff"/><path d="M265.8 696.54v6.25h1.6v-6.24c2.12-.4 3.62-2.2 3.63-4.36 0-2.43-1.98-4.4-4.42-4.42-2.2-.03-4.04 1.5-4.4 3.67-.42 2.4 1.2 4.7 3.6 5.1zm.8-7.16c.8 0 1.45.27 2.02.83.54.56.8 1.22.8 2 .02 1.55-1.2 2.8-2.75 2.83h-.06c-1.55.12-2.9-1.05-3.02-2.62-.12-1.55 1.05-2.9 2.6-3.02h.43z" stroke="#fff" stroke-opacity="0" fill="#fff"/><use xlink:href="#q" transform="matrix(1,0,0,1,309.59645440466824,679.2335060901607) translate(0 14.4)"/><use xlink:href="#r" transform="matrix(1,0,0,1,309.59645440466824,679.2335060901607) translate(60.9 14.4)"/><path d="M813.3 665.23a6 6 0 0 1 6-6h340.6a6 6 0 0 1 6 6v348a6 6 0 0 1-6 6H819.3a6 6 0 0 1-6-6z" fill="#147eba" fill-opacity=".13"/><path d="M813.3 659.23h56v56h-56v-56z" stroke="#fff" stroke-opacity="0" fill="#147eba"/><path d="M856.7 681.4c-.16-.16-.35-.24-.57-.24H851v-5.57c-.04-2.55-.98-4.72-2.85-6.42-1.9-1.83-4.15-2.75-6.77-2.75-2.66 0-4.9.84-6.8 2.62-1.9 1.7-2.88 3.87-2.9 6.4v5.67h-5.15c-.25 0-.44.08-.6.25-.15.16-.22.33-.22.58v25.3c0 .4.36.78.82.78h29.58c.47 0 .8-.37.8-.8v-25.28c0-.2-.05-.37-.2-.54zm-23.47-5.9c.03-2.12.8-3.87 2.37-5.28 1.63-1.5 3.53-2.2 5.75-2.2 2.2 0 4.1.74 5.7 2.24 1.53 1.4 2.3 3.2 2.3 5.33v5.56H833.2zm22.1 30.95H827.3v-23.7h28.02z" stroke="#fff" stroke-opacity="0" fill="#fff"/><path d="M840.5 696.54v6.25h1.6v-6.24c2.14-.4 3.64-2.2 3.65-4.36 0-2.43-1.98-4.4-4.42-4.42-2.2-.03-4.05 1.5-4.43 3.67-.4 2.4 1.2 4.7 3.6 5.1zm.83-7.16c.78 0 1.44.27 2 .83.55.56.82 1.22.8 2 .03 1.55-1.2 2.8-2.74 2.83h-.07c-1.56.12-2.92-1.05-3.04-2.62-.12-1.55 1.04-2.9 2.6-3.02h.43z" stroke="#fff" stroke-opacity="0" fill="#fff"/><use xlink:href="#q" transform="matrix(1,0,0,1,884.3135534470116,679.2335060901607) translate(0 14.4)"/><use xlink:href="#r" transform="matrix(1,0,0,1,884.3135534470116,679.2335060901607) translate(60.9 14.4)"/><path d="M238.6 375.77a6 6 0 0 1 6-6h338.93a6 6 0 0 1 6 6v257.46a6 6 0 0 1-6 6H244.6a6 6 0 0 1-6-6z" fill="#248814" fill-opacity=".13"/><path d="M238.6 369.77h56v56h-56v-56z" stroke="#fff" stroke-opacity="0" fill="#248814"/><path d="M281.98 391.95c-.16-.17-.35-.25-.56-.25h-5.15v-5.58c-.03-2.54-.97-4.7-2.84-6.4-1.9-1.84-4.15-2.75-6.77-2.75-2.65 0-4.9.83-6.8 2.62-1.9 1.7-2.87 3.86-2.9 6.4v5.65h-5.15c-.24 0-.43.1-.6.25h.02c-.16.17-.22.34-.22.6v25.28c0 .42.34.8.8.8h29.6c.45 0 .8-.38.8-.8v-25.3c0-.2-.06-.37-.22-.53zm-23.46-5.9c.03-2.13.8-3.88 2.37-5.3 1.6-1.5 3.5-2.2 5.73-2.2 2.2 0 4.12.75 5.7 2.25 1.54 1.4 2.32 3.2 2.32 5.32v5.58H258.5zm22.1 30.94h-28.03v-23.72h28z" stroke="#fff" stroke-opacity="0" fill="#fff"/><path d="M265.8 407.08v6.24h1.6v-6.23c2.12-.4 3.62-2.2 3.63-4.36 0-2.43-1.98-4.4-4.42-4.43-2.2-.02-4.04 1.5-4.4 3.7-.42 2.4 1.2 4.67 3.6 5.08zm.8-7.16c.8 0 1.45.27 2.02.82.54.56.8 1.22.8 2 .02 1.55-1.2 2.8-2.75 2.82h-.06c-1.55.12-2.9-1.05-3.02-2.6-.12-1.57 1.05-2.94 2.6-3.04.16-.02.28-.02.43 0z" stroke="#fff" stroke-opacity="0" fill="#fff"/><use xlink:href="#s" transform="matrix(1,0,0,1,309.59645440466824,389.77017275688536) translate(0 14.4)"/><use xlink:href="#t" transform="matrix(1,0,0,1,309.59645440466824,389.77017275688536) translate(53.900000000000006 14.4)"/><path d="M813.3 375.77a6 6 0 0 1 6-6h340.6a6 6 0 0 1 6 6v257.46a6 6 0 0 1-6 6H819.3a6 6 0 0 1-6-6z" fill="#248814" fill-opacity=".13"/><path d="M813.3 369.77h56v56h-56v-56z" stroke="#fff" stroke-opacity="0" fill="#248814"/><path d="M856.7 391.95c-.16-.17-.35-.25-.57-.25H851v-5.58c-.04-2.54-.98-4.7-2.85-6.4-1.9-1.84-4.15-2.75-6.77-2.75-2.66 0-4.9.83-6.8 2.62-1.9 1.7-2.88 3.86-2.9 6.4v5.65h-5.15c-.25 0-.44.1-.6.25-.15.17-.22.34-.22.6v25.28c0 .42.36.8.82.8h29.58c.47 0 .8-.38.8-.8v-25.3c0-.2-.05-.37-.2-.53zm-23.47-5.9c.03-2.13.8-3.88 2.37-5.3 1.63-1.5 3.53-2.2 5.75-2.2 2.2 0 4.1.75 5.7 2.25 1.53 1.4 2.3 3.2 2.3 5.32v5.58H833.2zm22.1 30.94H827.3v-23.72h28.02z" stroke="#fff" stroke-opacity="0" fill="#fff"/><path d="M840.5 407.08v6.24h1.6v-6.23c2.14-.4 3.64-2.2 3.65-4.36 0-2.43-1.98-4.4-4.42-4.43-2.2-.02-4.05 1.5-4.43 3.7-.4 2.4 1.2 4.67 3.6 5.08zm.83-7.16c.78 0 1.44.27 2 .82.55.56.82 1.22.8 2 .03 1.55-1.2 2.8-2.74 2.82h-.07c-1.56.12-2.92-1.05-3.04-2.6-.12-1.57 1.04-2.94 2.6-3.04.15-.02.28-.02.43 0z" stroke="#fff" stroke-opacity="0" fill="#fff"/><use xlink:href="#s" transform="matrix(1,0,0,1,884.3135534470116,389.77017275688536) translate(0 14.4)"/><use xlink:href="#t" transform="matrix(1,0,0,1,884.3135534470116,389.77017275688536) translate(53.900000000000006 14.4)"/><path d="M441.62 732.5c.9 0 1.68.83 1.68 1.7v57.23c0 .96-.78 1.7-1.68 1.7h-43c-.9 0-1.7-.74-1.7-1.7v-5.5h-5.5c-.9 0-1.68-.73-1.68-1.62v-4.65h-4.67c-.9 0-1.68-.75-1.68-1.7v-57.22c0-.97.77-1.7 1.67-1.7h43c.9 0 1.7.73 1.7 1.7v4.66h4.66c.96 0 1.68.74 1.68 1.7v5.4zm-41.33 57.3h39.64v-53.88H400.3zm-3.37-55.6c0-.88.78-1.7 1.68-1.7h34.16v-3.77h-39.6v53.88h3.77zm-7.2-7.1c0-.96.8-1.7 1.7-1.7h34.98v-3.04h-39.65v53.88h3zm14.87 39.8c-.96 0-1.68-.74-1.68-1.7v-7.12c0-.97.72-1.7 1.68-1.7h7.13c.96 0 1.74.74 1.74 1.7v7.1c0 .98-.78 1.72-1.74 1.72zm0-16.68c-.96 0-1.68-.74-1.68-1.7v-7.12c0-.96.72-1.7 1.68-1.7h7.13c.96 0 1.74.74 1.74 1.7v7.12c0 .96-.78 1.7-1.74 1.7zm0 33.35c-.96 0-1.68-.74-1.68-1.63v-7.2c0-.95.72-1.7 1.68-1.7h7.13c.96 0 1.74.75 1.74 1.7v7.2c0 .9-.78 1.63-1.74 1.63zm10.72-36.9v-3.4h21.5v3.4zm0 16.67v-3.4h21.5v3.4zm0 16.67v-3.32h21.5v3.34zm-9.04-33.2h3.77v-3.77h-3.77zm0 33.44h3.77v-3.78h-3.77zm0-16.68h3.77v-3.78h-3.77z" stroke="#000" stroke-opacity="0" fill="#d45b07"/><use xlink:href="#u" transform="matrix(1,0,0,1,353.39265116288067,802.1332011820075) translate(23.272839506172836 12.622222222222224)"/><use xlink:href="#v" transform="matrix(1,0,0,1,353.39265116288067,802.1332011820075) translate(62.62962962962963 12.622222222222224)"/><use xlink:href="#w" transform="matrix(1,0,0,1,353.39265116288067,802.1332011820075) translate(5.325617283950621 31.55555555555556)"/><use xlink:href="#x" transform="matrix(1,0,0,1,353.39265116288067,802.1332011820075) translate(63.96635802469135 31.55555555555556)"/><path d="M439.36 884.7c.9 0 1.58.7 1.58 1.6v65.4c0 .9-.7 1.58-1.58 1.58h-49.42c-.9 0-1.58-.68-1.58-1.57v-65.4c0-.9.7-1.6 1.58-1.6zm-47.84 65.5h46.26v-62.4h-46.26zm5.25-46.02c-.84 0-1.52-.68-1.52-1.57v-8.15c0-.83.68-1.58 1.52-1.58h8.26c.9 0 1.58.75 1.58 1.58v8.16c0 .9-.68 1.58-1.57 1.58zm0 38.2c-.84 0-1.52-.68-1.52-1.58v-8.16c0-.9.68-1.57 1.52-1.57h8.26c.9 0 1.58.68 1.58 1.57v8.16c0 .9-.68 1.58-1.57 1.58zm0-19.06c-.84 0-1.52-.76-1.52-1.58v-8.23c0-.8.68-1.5 1.52-1.5h8.26c.9 0 1.58.7 1.58 1.5v8.24c0 .82-.68 1.58-1.57 1.58zm12.4-23.25v-3.1h24.72v3.1zm0 19.13v-3.15h24.72v3.15zm0 19.07v-3.1h24.72v3.1zm-10.82-37.17h5.1v-5.08h-5.1zm0 19.06h5.1v-5.07h-5.1zm0 19.07h5.1v-5h-5.1z" stroke="#000" stroke-opacity="0" fill="#d45b07"/><use xlink:href="#u" transform="matrix(1,0,0,1,358.3633487754783,962.2851781486758) translate(8.837962962962962 12.622222222222224)"/><use xlink:href="#y" transform="matrix(1,0,0,1,358.3633487754783,962.2851781486758) translate(48.19475308641976 12.622222222222224)"/><use xlink:href="#z" transform="matrix(1,0,0,1,358.3633487754783,962.2851781486758) translate(9.714506172839506 31.55555555555556)"/><use xlink:href="#A" transform="matrix(1,0,0,1,358.3633487754783,962.2851781486758) translate(60.46635802469135 31.55555555555556)"/><path d="M1018.23 732.5c.9 0 1.68.83 1.68 1.7v57.23c0 .96-.77 1.7-1.67 1.7h-43c-.9 0-1.7-.74-1.7-1.7v-5.5h-5.5c-.9 0-1.68-.73-1.68-1.62v-4.65h-4.67c-.9 0-1.68-.75-1.68-1.7v-57.22c0-.97.78-1.7 1.68-1.7h43c.9 0 1.7.73 1.7 1.7v4.66h4.66c.96 0 1.68.74 1.68 1.7v5.4zm-41.34 57.3h39.65v-53.88H976.9zm-3.36-55.6c0-.88.78-1.7 1.68-1.7h34.14v-3.77h-39.6v53.88h3.78zm-7.2-7.1c0-.96.8-1.7 1.7-1.7H1003v-3.04h-39.64v53.88h3zm14.87 39.8c-.95 0-1.67-.74-1.67-1.7v-7.12c0-.97.72-1.7 1.68-1.7h7.14c.95 0 1.73.74 1.73 1.7v7.1c0 .98-.78 1.72-1.73 1.72zm0-16.68c-.95 0-1.67-.74-1.67-1.7v-7.12c0-.96.72-1.7 1.68-1.7h7.14c.95 0 1.73.74 1.73 1.7v7.12c0 .96-.78 1.7-1.73 1.7zm0 33.35c-.95 0-1.67-.74-1.67-1.63v-7.2c0-.95.72-1.7 1.68-1.7h7.14c.95 0 1.73.75 1.73 1.7v7.2c0 .9-.78 1.63-1.73 1.63zm10.73-36.9v-3.4h21.5v3.4zm0 16.67v-3.4h21.5v3.4zm0 16.67v-3.32h21.5v3.34zm-9.04-33.2h3.76v-3.77h-3.77zm0 33.44h3.76v-3.78h-3.77zm0-16.68h3.76v-3.78h-3.77z" stroke="#000" stroke-opacity="0" fill="#d45b07"/><use xlink:href="#u" transform="matrix(1,0,0,1,929.9999999999998,802.1332011820075) translate(23.272839506172836 12.622222222222224)"/><use xlink:href="#v" transform="matrix(1,0,0,1,929.9999999999998,802.1332011820075) translate(62.62962962962963 12.622222222222224)"/><use xlink:href="#w" transform="matrix(1,0,0,1,929.9999999999998,802.1332011820075) translate(5.325617283950621 31.55555555555556)"/><use xlink:href="#x" transform="matrix(1,0,0,1,929.9999999999998,802.1332011820075) translate(63.96635802469135 31.55555555555556)"/><path d="M334 499.4h740v359.83H334z" fill="#fff" fill-opacity="0"/><path d="M341 499.4h6m4 0h6m4 0h6m4 0h6m4 0h6m4 0h6m4 0h6m4 0h6m4 0h6m4 0h6m4 0h6m4 0h6m4 0h6m4 0h6m4 0h6m4 0h6m4 0h6m4 0h6m4 0h6m4 0h6m4 0h6m4 0h6m4 0h6m4 0h6m4 0h6m4 0h6m4 0h6m4 0h6m4 0h6m4 0h6m4 0h6m4 0h6m4 0h6m4 0h6m4 0h6m4 0h6m4 0h6m4 0h6m4 0h6m4 0h6m4 0h6m4 0h6m4 0h6m4 0h6m4 0h6m4 0h6m4 0h6m4 0h6m4 0h6m4 0h6m4 0h6m4 0h6m4 0h6m4 0h6m4 0h6m4 0h6m4 0h6m4 0h6m4 0h6m4 0h6m4 0h6m4 0h6m4 0h6m4 0h6m4 0h6m4 0h6m4 0h6m4 0h6m4 0h6m4 0h6m4 0h6m4 0h6m4 0h6m4 0h3v3m0 4v6m0 4v6m0 4v6m0 4v6m0 4v6m0 3.98v6m0 4v6m0 4v6m0 4v6m0 3.98v6m0 4v6m0 4v6m0 4v6m0 3.98v6m0 4v6m0 4v6m0 4v6m0 3.98v6m0 4v6m0 4v6m0 4v6m0 3.98v6m0 4v6m0 4v6m0 4v6m0 3.98v6m0 4v6m0 4v6m0 4v6m0 4v5.98m0 4v6m0 4v6m0 4v6m0 4v5.98m0 4v6m0 4v3h-3m-4 0h-6m-4 0h-6m-4 0h-6m-4 0h-6m-4 0h-6m-4 0h-6m-4 0h-6m-4 0h-6m-4 0h-6m-4 0h-6m-4 0h-6m-4 0h-6m-4 0h-6m-4 0h-6m-4 0h-6m-4 0h-6m-4 0h-6m-4 0h-6m-4 0h-6m-4 0h-6m-4 0h-6m-4 0h-6m-4 0h-6m-4 0h-6m-4 0h-6m-4 0h-6m-4 0h-6m-4 0h-6m-4 0h-6m-4 0h-6m-4 0h-6m-4 0h-6m-4 0h-6m-4 0h-6m-4 0h-6m-4 0h-6m-4 0h-6m-4 0h-6m-4 0h-6m-4 0h-6m-4 0h-6m-4 0h-6m-4 0h-6m-4 0h-6m-4 0h-6m-4 0h-6m-4 0h-6m-4 0h-6m-4 0h-6m-4 0h-6m-4 0h-6m-4 0h-6m-4 0h-6m-4 0h-6m-4 0h-6m-4 0h-6m-4 0h-6m-4 0h-6m-4 0h-6m-4 0h-6m-4 0h-6m-4 0h-6m-4 0h-6m-4 0h-6m-4 0h-6m-4 0h-6m-4 0h-6m-4 0h-6m-4 0h-6m-4 0h-6m-4 0h-6m-4 0h-6m-4 0h-6m-4 0h-3v-3m0-4v-6m0-4v-6m0-4v-6m0-4v-6m0-3.98v-6m0-4v-6m0-4v-6m0-4v-6m0-3.98v-6m0-4v-6m0-4v-6m0-4v-6m0-3.98v-6m0-4v-6m0-4v-6m0-4v-6m0-3.98v-6m0-4v-6m0-4v-6m0-4v-6m0-3.98v-6m0-4v-6m0-4v-6m0-4v-6m0-4v-5.98m0-4v-6m0-4v-6m0-4v-6m0-4v-5.98m0-4v-6m0-4v-6m0-4v-6m0-4v-5.98m0-4v-6m0-4v-6m0-4v-3h3" stroke="#d86613" stroke-width="2" fill="none"/><path d="M676 499.4h56v56h-56v-56z" stroke="#fff" stroke-opacity="0" fill="#d86613"/><path d="M695.68 523.14l-1.14 1.13 2.33 2.34H684v1.6h12.87l-2.33 2.35 1.14 1.13 4.27-4.27-4.27-4.26zM724 526.6h-12.87l2.33-2.33-1.14-1.13-4.27 4.27 4.27 4.28 1.14-1.13-2.33-2.34H724v-1.6zM703.2 510.04v12.87h1.6v-12.86l2.34 2.33 1.13-1.13-4.27-4.28-4.27 4.28 1.13 1.13 2.34-2.33zM704.8 544.78V531.9h-1.6v12.88l-2.34-2.33-1.13 1.13 4.27 4.28 4.27-4.28-1.13-1.13-2.34 2.33z" stroke="#fff" stroke-opacity="0" fill="#fff"/><use xlink:href="#B" transform="matrix(1,0,0,1,334,570.410893360227) translate(283.29938271604937 12.444444444444446)"/><use xlink:href="#C" transform="matrix(1,0,0,1,334,570.410893360227) translate(333.33641975308643 12.444444444444446)"/><use xlink:href="#D" transform="matrix(1,0,0,1,334,570.410893360227) translate(404.9351851851852 12.444444444444446)"/><use xlink:href="#E" transform="matrix(1,0,0,1,334,570.410893360227) translate(261.2191358024691 31.111111111111118)"/><use xlink:href="#F" transform="matrix(1,0,0,1,334,570.410893360227) translate(300.108024691358 31.111111111111118)"/><use xlink:href="#G" transform="matrix(1,0,0,1,334,570.410893360227) translate(369.2006172839506 31.111111111111118)"/><use xlink:href="#H" transform="matrix(1,0,0,1,334,570.410893360227) translate(427.0154320987654 31.111111111111118)"/><path d="M677.1 501.36h52.38v52.38H677.1v-52.38z" stroke="#fff" stroke-opacity="0" stroke-width="2" fill="#d86613"/><path d="M703.13 546.36c-.12 0-.25-.04-.35-.1l-15.9-9.16c-.25-.15-.38-.38-.38-.64V517.9c0-.27.13-.5.4-.65l14.6-8.43c.3-.23.74-.12.96.2.1.13.13.3.13.44v8.06c0 .22-.14.45-.36.6l-7.33 4.18v9.75l8.26 4.75 7.2-4.18c.23-.15.48-.15.7 0l6.92 4c.25.1.38.33.38.63 0 .26-.13.5-.38.6l-14.5 8.4c-.1.07-.22.1-.35.1zm-15.2-10.4l15.6 9 13.36-7.75-5.58-3.2-7.42 4.3c-.26.12-.5.12-.77 0l-9.27-5.34c-.25-.16-.38-.38-.38-.64v-10.4c0-.26.13-.5.38-.64l7.3-4.18v-6.4l-13.25 7.68z" stroke="#fff" stroke-opacity="0" stroke-width="2" fill="#fff"/><path d="M719.3 535.58c-.13 0-.25-.03-.36-.1l-6.92-4c-.24-.14-.37-.35-.37-.65v-8.44l-7.3-4.22c-.26-.14-.38-.38-.38-.64v-8.05c0-.28.12-.52.37-.63.2-.13.46-.13.7 0l14.66 8.42c.24.13.37.37.37.64v16.86c0 .3-.13.5-.37.64-.13.08-.24.14-.4.14zm-6.24-5.2l5.6 3.2v-15.2l-13.28-7.65v6.35l7.33 4.26c.25.14.4.35.38.64z" stroke="#fff" stroke-opacity="0" stroke-width="2" fill="#fff"/><path d="M670.58 379.23h66.84v66.85h-66.84v-66.85z" stroke="#fff" stroke-opacity="0" stroke-width="2" fill="#693cc5"/><path d="M714.73 413.54c.4 2.4 2.18 4.2 4.57 4.6 3.05.48 5.88-1.57 6.36-4.6.52-3.03-1.52-5.88-4.57-6.37-3-.5-5.9 1.56-6.37 4.6h-6.66c-.08-1.75-.48-3.18-1.22-4.74l8-6.77c1 .8 2.15 1.2 3.45 1.2 3.05 0 5.53-2.5 5.53-5.57 0-3.04-2.48-5.53-5.53-5.53-3.1 0-5.57 2.5-5.57 5.57 0 1.1.3 2.05.9 3.03l-7.73 6.5c-1-1.47-2.1-2.58-3.57-3.56-5.97-3.96-13.98-2.35-17.94 3.57-3.97 5.93-2.36 13.95 3.56 17.92 5.92 3.95 13.98 2.35 17.94-3.58l7.75 6.55c-.6.94-.92 1.88-.92 3.03 0 1.3.4 2.4 1.22 3.44 1.87 2.4 5.35 2.8 7.75.9 2.44-1.88 2.83-5.36.9-7.77-1.86-2.4-5.34-2.8-7.74-.93l-8-6.78c.73-1.56 1.13-2.98 1.2-4.72zm5.44-4.63c2.1 0 3.8 1.65 3.8 3.75s-1.7 3.74-3.75 3.8c-2.1 0-3.8-1.7-3.8-3.8 0-2.05 1.7-3.74 3.75-3.74zm-1.82-16.75c2.04 0 3.74 1.7 3.74 3.8 0 2.04-1.7 3.73-3.75 3.73-2.1 0-3.8-1.7-3.8-3.74 0-2.1 1.7-3.8 3.8-3.8zm0 33.5c2.04 0 3.74 1.66 3.74 3.75 0 2.1-1.7 3.75-3.75 3.75-2.1 0-3.8-1.65-3.8-3.75s1.7-3.74 3.8-3.74zm-23.16-1.86c-6.15 0-11.16-5-11.16-11.15s5-11.14 11.15-11.14c6.13 0 11.13 5 11.13 11.15s-5 11.14-11.14 11.14z" stroke="#fff" stroke-opacity="0" stroke-width="2" fill="#fff"/><use xlink:href="#I" transform="matrix(1,0,0,1,640.5781773747158,455.0771513407291) translate(21.19753086419754 12.444444444444443)"/><use xlink:href="#J" transform="matrix(1,0,0,1,640.5781773747158,455.0771513407291) translate(71.23456790123457 12.444444444444443)"/><use xlink:href="#K" transform="matrix(1,0,0,1,640.5781773747158,455.0771513407291) translate(29.407407407407412 31.111111111111107)"/><path d="M413.35 586.08c-18.45 0-33.43-14.98-33.43-33.43 0-18.44 14.98-33.42 33.43-33.42 18.44 0 33.42 14.98 33.42 33.42 0 18.45-14.97 33.43-33.42 33.43zm0-64.17c-16.98 0-30.75 13.78-30.75 30.75 0 16.98 13.77 30.75 30.75 30.75 16.97 0 30.74-13.77 30.74-30.75 0-16.97-13.78-30.74-30.75-30.74z" stroke="#fff" stroke-opacity="0" stroke-width="3" fill="#693cc5"/><path d="M433.28 562h-2.55v-5.34c0-.75-.6-1.33-1.32-1.33h-4.03V550c0-.76-.6-1.34-1.32-1.34h-9.36v-4.02h9.35c.72 0 1.32-.62 1.32-1.32v-12.07c0-.74-.6-1.32-1.32-1.32h-21.4c-.73 0-1.33.58-1.33 1.33v12.06c0 .7.6 1.32 1.32 1.32H412v4.02h-9.36c-.72 0-1.32.58-1.32 1.33v5.33h-4c-.76 0-1.36.58-1.36 1.33V562h-2.55c-.7 0-1.3.63-1.3 1.33v6.7c0 .76.6 1.34 1.3 1.34h6.56c.77 0 1.36-.58 1.36-1.33v-6.7c0-.7-.6-1.34-1.36-1.34h-1.32v-4h6.68v4h-1.3c-.78 0-1.38.63-1.38 1.33v6.7c0 .76.6 1.34 1.37 1.34h6.7c.7 0 1.3-.58 1.3-1.33v-6.7c0-.7-.6-1.34-1.3-1.34H408v-5.34c0-.75-.6-1.33-1.36-1.33H404v-4.02h18.7v4.03h-2.65c-.77 0-1.37.58-1.37 1.33V562H416c-.72 0-1.3.63-1.3 1.33v6.7c0 .76.58 1.34 1.3 1.34h6.7c.75 0 1.35-.58 1.35-1.33v-6.7c0-.7-.6-1.34-1.37-1.34h-1.3v-4h6.67v4h-1.45c-.72 0-1.32.63-1.32 1.33v6.7c0 .76.6 1.34 1.32 1.34h6.72c.73 0 1.32-.58 1.32-1.33v-6.7-.05c-.04-.7-.64-1.3-1.36-1.3zm-34.64 6.68h-3.87v-3.98h3.87zm10.68-3.98v3.98h-4v-3.98zm-5.3-22.75v-9.33h18.67v9.33zm17.35 26.73h-4v-3.98h4zm10.55 0h-4v-3.98h4z" stroke="#fff" stroke-opacity="0" stroke-width="3" fill="#693cc5"/><use xlink:href="#L" transform="matrix(1,0,0,1,349.92451741502947,595.0771513407291) translate(6.095679012345684 12.444444444444443)"/><use xlink:href="#M" transform="matrix(1,0,0,1,349.92451741502947,595.0771513407291) translate(86.33641975308642 12.444444444444443)"/><use xlink:href="#N" transform="matrix(1,0,0,1,349.92451741502947,595.0771513407291) translate(32.8641975308642 31.111111111111107)"/><path d="M989.6 586.08c-18.44 0-33.42-14.98-33.42-33.43 0-18.44 14.98-33.42 33.43-33.42 18.46 0 33.43 14.98 33.43 33.42 0 18.45-14.97 33.43-33.42 33.43zm0-64.17c-16.97 0-30.74 13.78-30.74 30.75 0 16.98 13.77 30.75 30.75 30.75 17 0 30.75-13.77 30.75-30.75 0-16.97-13.76-30.74-30.74-30.74z" stroke="#fff" stroke-opacity="0" stroke-width="3" fill="#693cc5"/><path d="M1009.54 562H1007v-5.34c0-.75-.6-1.33-1.33-1.33h-4.04V550c0-.76-.6-1.34-1.32-1.34h-9.35v-4.02h9.36c.73 0 1.33-.62 1.33-1.32v-12.07c0-.74-.6-1.32-1.32-1.32h-21.4c-.72 0-1.3.58-1.3 1.33v12.06c0 .7.58 1.32 1.3 1.32h9.37v4.02h-9.37c-.72 0-1.3.58-1.3 1.33v5.33h-4c-.78 0-1.38.58-1.38 1.33V562h-2.55c-.72 0-1.32.63-1.32 1.33v6.7c0 .76.6 1.34 1.32 1.34h6.55c.77 0 1.37-.58 1.37-1.33v-6.7c0-.7-.6-1.34-1.38-1.34h-1.32v-4h6.7v4h-1.33c-.77 0-1.37.63-1.37 1.33v6.7c0 .76.6 1.34 1.37 1.34h6.68c.72 0 1.3-.58 1.3-1.33v-6.7c0-.7-.58-1.34-1.3-1.34h-2.7v-5.34c0-.75-.58-1.33-1.35-1.33h-2.63v-4.02h18.68v4.03h-2.64c-.76 0-1.35.58-1.35 1.33V562h-2.7c-.7 0-1.3.63-1.3 1.33v6.7c0 .76.6 1.34 1.3 1.34h6.7c.76 0 1.36-.58 1.36-1.33v-6.7c0-.7-.6-1.34-1.35-1.34h-1.32v-4h6.68v4h-1.44c-.72 0-1.32.63-1.32 1.33v6.7c0 .76.6 1.34 1.32 1.34h6.72c.73 0 1.32-.58 1.32-1.33v-6.7-.05c-.04-.7-.63-1.3-1.36-1.3zm-34.64 6.68h-3.87v-3.98h3.87zm10.7-3.98v3.98h-4v-3.98zm-5.33-22.75v-9.33h18.68v9.33zm17.36 26.73h-4v-3.98h4zm10.55 0h-4v-3.98h4z" stroke="#fff" stroke-opacity="0" stroke-width="3" fill="#693cc5"/><use xlink:href="#L" transform="matrix(1,0,0,1,926.1852489630032,595.0771513407291) translate(6.095679012345684 12.444444444444443)"/><use xlink:href="#M" transform="matrix(1,0,0,1,926.1852489630032,595.0771513407291) translate(86.33641975308642 12.444444444444443)"/><use xlink:href="#N" transform="matrix(1,0,0,1,926.1852489630032,595.0771513407291) translate(32.8641975308642 31.111111111111107)"/><path d="M670.08 413.15h-250.7l-.9.08-.83.2-.8.33-.74.45-.64.57-.56.65-.45.74-.33.8-.2.84-.07.88v84.17h-1v-84.2l.07-1 .24-1 .4-.95.53-.87.65-.77.77-.67.88-.54.94-.4 1-.23 1-.08h250.74z" stroke="#3a414a" stroke-width=".05" fill="#3a414a"/><path d="M670.58 413.15h-.5v-1h.5z" fill="#3a414a"/><path d="M670.6 413.18h-.56v-1.05h.56zm-.5-1v.95h.45v-.95z" stroke="#3a414a" stroke-width=".05" fill="#3a414a"/><path d="M413.35 517.6l-4.64-14.25H418z" fill="#3a414a"/><path d="M413.35 519.23l-5.33-16.38h10.65zm-3.95-15.38l3.95 12.15 3.94-12.15z" stroke="#3a414a" stroke-width=".05" fill="#3a414a"/><path d="M737.92 412.65h245.7a6 6 0 0 1 6 6v84.2" stroke="#3a414a" fill="none"/><path d="M737.93 413.15h-.5v-1h.5z" stroke="#3a414a" stroke-width=".05" fill="#3a414a"/><path d="M989.6 517.6l-4.63-14.25h9.27z" stroke="#3a414a" fill="#3a414a"/><path d="M413.85 702.64h-1v-40.76h1zm0-59.42h-1v-56.64h1z" stroke="#3a414a" stroke-width=".05" fill="#3a414a"/><path d="M413.35 586.08l.5-.02v.53h-1v-.56z" fill="#3a414a"/><path d="M413.35 586.05l.52-.02v.6h-1.05V586zm-.48.52h.95v-.5l-.47.03-.48-.03z" stroke="#3a414a" stroke-width=".05" fill="#3a414a"/><path d="M413.35 717.4l-4.64-14.26H418z" fill="#3a414a"/><path d="M413.35 719.02l-5.33-16.38h10.65zm-3.95-15.38l3.95 12.14 3.94-12.14z" stroke="#3a414a" stroke-width=".05" fill="#3a414a"/><use xlink:href="#O" transform="matrix(1,0,0,1,382.6889326329063,643.215732837298) translate(0 12.444444444444446)"/><use xlink:href="#P" transform="matrix(1,0,0,1,382.6889326329063,643.215732837298) translate(35.38888888888889 12.444444444444446)"/><path d="M990.1 702.64h-1v-40.76h1zm0-59.42h-1v-56.64h1z" stroke="#3a414a" stroke-width=".05" fill="#3a414a"/><path d="M989.6 586.08l.5-.02v.53h-1v-.56z" fill="#3a414a"/><path d="M989.6 586.05l.53-.02v.6h-1.05V586zm-.47.52h.95v-.5l-.47.03-.47-.03z" stroke="#3a414a" stroke-width=".05" fill="#3a414a"/><path d="M989.6 717.4l-4.63-14.26h9.27z" fill="#3a414a"/><path d="M989.6 719.02l-5.32-16.38h10.65zm-3.94-15.38l3.95 12.14 3.95-12.14z" stroke="#3a414a" stroke-width=".05" fill="#3a414a"/><g><use xlink:href="#O" transform="matrix(1,0,0,1,958.9496641808801,643.215732837298) translate(0 12.444444444444446)"/><use xlink:href="#P" transform="matrix(1,0,0,1,958.9496641808801,643.215732837298) translate(35.38888888888889 12.444444444444446)"/></g><path d="M487.27 913.02l-.08 1-.25 1-.4.93-.52.87-.66.77-.78.66-.88.53-.94.38-1 .24-1 .08h-23.46v-1h23.43l.88-.07.84-.2.8-.33.73-.45.66-.57.56-.65.45-.74.33-.8.2-.84.07-.88v-351h1zm-40-359.87v-1h8.84v1z" stroke="#3a414a" stroke-width=".05" fill="#3a414a"/><path d="M447.28 553.15h-.55l.04-.5-.02-.5h.53z" fill="#3a414a"/><path d="M447.3 553.18h-.6l.04-.52-.02-.53h.6zm-.53-1l.02.48-.04.47h.5v-.95z" stroke="#3a414a" stroke-width=".05" fill="#3a414a"/><path d="M456.82 923.63L442.56 919l14.26-4.64z" fill="#3a414a"/><path d="M457.32 924.32L440.94 919l16.38-5.33zM444.17 919l12.15 3.94v-7.9z" stroke="#3a414a" stroke-width=".05" fill="#3a414a"/><g><use xlink:href="#O" transform="matrix(1,0,0,1,456.1107549936427,543.3219953821116) translate(0 12.444444444444446)"/><use xlink:href="#Q" transform="matrix(1,0,0,1,456.1107549936427,543.3219953821116) translate(35.38888888888889 12.444444444444446)"/></g><path d="M582.58 72.94h112.54a6 6 0 0 1 6 6v20.33" stroke="#3a414a" fill="none"/><path d="M582.6 73.44h-.54l.02-.04v-.96h.5z" stroke="#3a414a" stroke-width=".05" fill="#3a414a"/><path d="M701.12 114.04l-4.63-14.27h9.26z" stroke="#3a414a" fill="#3a414a"/><path d="M819.98 72.94H707.12a6 6 0 0 0-6 6v20.33" stroke="#3a414a" fill="none"/><path d="M820.48 73.4l.02.04h-.53v-1h.5z" stroke="#3a414a" stroke-width=".05" fill="#3a414a"/><path d="M701.12 114.04l-4.63-14.27h9.26z" stroke="#3a414a" fill="#3a414a"/><path d="M701.12 182.04v60.87" stroke="#3a414a" fill="none"/><path d="M701.62 182.06h-1v-.52h1z" stroke="#3a414a" stroke-width=".05" fill="#3a414a"/><path d="M701.12 257.68l-4.63-14.27h9.26z" stroke="#3a414a" fill="#3a414a"/><path d="M702.4 320.82v42.03" stroke="#3a414a" fill="none"/><path d="M702.4 320.32l.5-.03v.53h-1v-.55z" stroke="#3a414a" stroke-width=".05" fill="#3a414a"/><path d="M702.4 377.6l-4.64-14.25h9.27z" stroke="#3a414a" fill="#3a414a"/><path d="M702.4 320.32c-16.87 0-30.55-13.7-30.55-30.54 0-16.86 13.68-30.55 30.54-30.55 16.85 0 30.53 13.7 30.53 30.55 0 16.86-13.68 30.54-30.54 30.54zm0-58.46c-15.46 0-27.92 12.46-27.92 27.92 0 15.45 12.46 27.9 27.9 27.9 15.47 0 27.93-12.45 27.93-27.9 0-15.46-12.45-27.92-27.9-27.92z" stroke="#fff" stroke-opacity="0" fill="#693cc5"/><path d="M717 308.13h-4.86c-.74 0-1.3-.58-1.3-1.3v-25.2c-2.65-1.38-5.17-2-8.13-2.06-3.24.07-5.94.8-8.8 2.34v24.93c0 .72-.58 1.3-1.28 1.3h-4.84c-.74 0-1.3-.58-1.3-1.3V278.5c0-.4.15-.74.44-1 4.65-3.8 9.8-5.58 15.8-5.43 5.66-.1 10.53 1.47 15.08 4.83.35.25.5.6.5 1v28.93c0 .72-.56 1.3-1.3 1.3zm-3.56-2.6h2.26v-26.97c-3.98-2.74-8.15-3.97-13-3.9-5.12-.14-9.54 1.3-13.62 4.4v26.47h2.23v-24.45c0-.5.27-.94.7-1.15 3.45-1.95 6.76-2.9 10.7-2.96 3.6.1 6.67.9 9.85 2.6h.13c.48.2.76.65.76 1.2z" stroke="#fff" stroke-opacity="0" fill="#693cc5"/><g><use xlink:href="#R" transform="matrix(1,0,0,1,641.849982999672,329.31825981259016) translate(3.5740740740740904 13.61111111111111)"/><use xlink:href="#S" transform="matrix(1,0,0,1,641.849982999672,329.31825981259016) translate(60.567901234567906 13.61111111111111)"/></g><path d="M286.58 446.08c18.45 0 33.42 14.97 33.42 33.42 0 18.45-14.97 33.42-33.42 33.42-18.45 0-33.42-14.97-33.42-33.42 0-18.45 14.97-33.42 33.42-33.42zm0 63.83c16.78 0 30.4-13.62 30.4-30.4s-13.62-30.42-30.4-30.42-30.42 13.64-30.42 30.42 13.64 30.4 30.42 30.4zm26.34-30.13c.6.6.6 1.53 0 2.13l-6.7 6.62c-.26.34-.66.47-1.06.47-.2 0-.33 0-.53-.14-.6-.2-.94-.74-.94-1.4v-5.1h-11.64v14.45c0 .8-.67 1.48-1.47 1.48h-11.7v-3h10.15v-12.9h-10.43v-3.08h10.43v-12.9H278.9v-3h11.7c.8 0 1.46.66 1.46 1.46v14.44h11.63v-5.15c0-.6.32-1.13.93-1.4.53-.2 1.2-.07 1.6.33zm-42.65-5.42l6.62 5.28c.32.27.6.74.6 1.2 0 .47-.28.88-.6 1.2l-6.63 5.3c-.27.2-.6.32-1 .32-.2 0-.4-.06-.6-.13-.54-.27-.88-.8-.88-1.4V475.5c0-.55.33-1.08.86-1.35.47-.27 1.14-.2 1.6.2zm0 14.57l6.62 5.35c.32.27.6.74.6 1.2 0 .47-.28.87-.6 1.14l-6.63 5.36c-.27.2-.6.33-1 .33-.2 0-.4-.07-.6-.14-.54-.27-.88-.8-.88-1.4v-10.63c0-.6.33-1.14.86-1.34.47-.28 1.14-.2 1.6.12zm0-30.54l6.62 5.34c.32.27.6.67.6 1.14 0 .47-.28.94-.6 1.2l-6.63 5.35c-.27.2-.6.35-1 .35-.2 0-.4-.07-.6-.2-.54-.27-.88-.74-.88-1.34V459.6c0-.6.33-1.14.86-1.4.47-.27 1.14-.2 1.6.2zm36.43 25.4l3-2.94-3-3zm-35.9-.8l2.74-2.14-2.74-2.14zm0-15.9l2.74-2.22-2.74-2.14zm0 30.53l2.74-2.13-2.74-2.2z" stroke="#000" stroke-opacity="0" fill="#4d27aa"/><g><use xlink:href="#T" transform="matrix(1,0,0,1,223.15635474943173,521.9207965912974) translate(30.125617283950618 12.622222222222224)"/><use xlink:href="#U" transform="matrix(1,0,0,1,223.15635474943173,521.9207965912974) translate(66.89660493827161 12.622222222222224)"/><use xlink:href="#V" transform="matrix(1,0,0,1,223.15635474943173,521.9207965912974) translate(32.40462962962963 31.55555555555556)"/></g><path d="M1113.42 446.08c18.45 0 33.42 14.97 33.42 33.42 0 18.45-14.97 33.42-33.42 33.42-18.45 0-33.42-14.97-33.42-33.42 0-18.45 14.97-33.42 33.42-33.42zm0 63.83c16.78 0 30.42-13.62 30.42-30.4s-13.64-30.42-30.42-30.42-30.4 13.64-30.4 30.42 13.62 30.4 30.4 30.4zm26.34-30.13c.6.6.6 1.53 0 2.13l-6.7 6.62c-.25.34-.65.47-1.06.47-.2 0-.33 0-.53-.14-.6-.2-.94-.74-.94-1.4v-5.1h-11.63v14.45c0 .8-.67 1.48-1.47 1.48h-11.7v-3h10.16v-12.9h-10.43v-3.08h10.42v-12.9h-10.17v-3h11.7c.8 0 1.47.66 1.47 1.46v14.44h11.63v-5.15c0-.6.34-1.13.94-1.4.53-.2 1.2-.07 1.6.33zm-42.65-5.42l6.63 5.28c.33.27.6.74.6 1.2 0 .47-.27.88-.6 1.2l-6.62 5.3c-.25.2-.6.32-1 .32-.2 0-.4-.06-.6-.13-.53-.27-.86-.8-.86-1.4V475.5c0-.55.33-1.08.87-1.35.48-.27 1.14-.2 1.6.2zm0 14.57l6.63 5.35c.33.27.6.74.6 1.2 0 .47-.27.87-.6 1.14l-6.62 5.36c-.25.2-.6.33-1 .33-.2 0-.4-.07-.6-.14-.53-.27-.86-.8-.86-1.4v-10.63c0-.6.33-1.14.87-1.34.48-.28 1.14-.2 1.6.12zm0-30.54l6.63 5.34c.33.27.6.67.6 1.14 0 .47-.27.94-.6 1.2l-6.62 5.35c-.25.2-.6.35-1 .35-.2 0-.4-.07-.6-.2-.53-.27-.86-.74-.86-1.34V459.6c0-.6.33-1.14.87-1.4.48-.27 1.14-.2 1.6.2zm36.44 25.4l3-2.94-3-3zm-35.9-.8l2.75-2.14-2.75-2.14zm0-15.9l2.75-2.22-2.75-2.14zm0 30.53l2.75-2.13-2.75-2.2z" stroke="#000" stroke-opacity="0" fill="#4d27aa"/><g><use xlink:href="#T" transform="matrix(1,0,0,1,1050,521.9207965912974) translate(30.125617283950618 12.622222222222224)"/><use xlink:href="#U" transform="matrix(1,0,0,1,1050,521.9207965912974) translate(66.89660493827161 12.622222222222224)"/><use xlink:href="#V" transform="matrix(1,0,0,1,1050,521.9207965912974) translate(32.40462962962963 31.55555555555556)"/></g><defs><path fill="#fff" d="M182-182c0 78-84 86-111 141h115V0H12c-6-101 99-100 120-180 1-22-12-31-33-32-23 0-32 14-35 34l-49-3c5-45 32-70 84-70 51 0 83 22 83 69" id="W"/><use transform="matrix(0.06172839506172839,0,0,0.06172839506172839,0,0)" xlink:href="#W" id="a"/><path fill="#fff" d="M128-127c34 4 56 21 59 58 7 91-148 94-172 28-4-9-6-17-7-26l51-5c1 24 16 35 40 36 23 0 39-12 38-36-1-31-31-36-65-34v-40c32 2 59-3 59-33 0-20-13-33-34-33s-33 13-35 32l-50-3c6-44 37-68 86-68 50 0 83 20 83 66 0 35-22 52-53 58" id="X"/><use transform="matrix(0.06172839506172839,0,0,0.06172839506172839,0,0)" xlink:href="#X" id="b"/><path fill="#fff" d="M165-50V0h-47v-50H5v-38l105-160h55v161h33v37h-33zm-47-37l2-116L46-87h72" id="Y"/><use transform="matrix(0.06172839506172839,0,0,0.06172839506172839,0,0)" xlink:href="#Y" id="c"/><path fill="#fff" d="M139-81c0-46-55-55-73-27H18l9-140h149v37H72l-4 63c44-38 133-4 122 66C201 21 21 35 11-62l49-4c5 18 15 30 39 30 26 0 40-18 40-45" id="Z"/><use transform="matrix(0.06172839506172839,0,0,0.06172839506172839,0,0)" xlink:href="#Z" id="d"/><path fill="#fff" d="M115-159c48 0 72 30 72 78 0 54-30 85-83 85-64 0-91-50-91-122 0-98 58-163 141-120 15 8 21 24 27 44l-47 6c-5-31-48-31-61-4-7 14-11 33-11 60 9-17 28-27 53-27zM102-35c24 0 36-20 36-45s-11-43-37-43c-23 0-36 14-36 38 0 27 11 50 37 50" id="aa"/><use transform="matrix(0.06172839506172839,0,0,0.06172839506172839,0,0)" xlink:href="#aa" id="e"/><path fill="#fff" d="M52 0c1-96 47-148 87-207H15v-41h169v40c-36 62-79 113-81 208H52" id="ab"/><use transform="matrix(0.06172839506172839,0,0,0.06172839506172839,0,0)" xlink:href="#ab" id="f"/><path fill="#666" d="M199 0l-22-63H83L61 0H9l90-248h61L250 0h-51zm-33-102l-36-108c-10 38-24 72-36 108h72" id="ac"/><path fill="#666" d="M275 0h-61l-44-196L126 0H64L0-248h53L97-49l45-199h58l43 199 44-199h52" id="ad"/><path fill="#666" d="M169-182c-1-43-94-46-97-3 18 66 151 10 154 114 3 95-165 93-204 36-6-8-10-19-12-30l50-8c3 46 112 56 116 5-17-69-150-10-154-114-4-87 153-88 188-35 5 8 8 18 10 28" id="ae"/><g id="g"><use transform="matrix(0.04320987654320988,0,0,0.04320987654320988,0,0)" xlink:href="#ac"/><use transform="matrix(0.04320987654320988,0,0,0.04320987654320988,10.327160493827162,0)" xlink:href="#ad"/><use transform="matrix(0.04320987654320988,0,0,0.04320987654320988,24.97530864197531,0)" xlink:href="#ae"/></g><path fill="#666" d="M67-125c0 53 21 87 73 88 37 1 54-22 65-47l45 17C233-25 199 4 140 4 58 4 20-42 15-125 8-235 124-281 211-232c18 10 29 29 36 50l-46 12c-8-25-30-41-62-41-52 0-71 34-72 86" id="af"/><path fill="#666" d="M25 0v-261h50V0H25" id="ag"/><path fill="#666" d="M110-194c64 0 96 36 96 99 0 64-35 99-97 99-61 0-95-36-95-99 0-62 34-99 96-99zm-1 164c35 0 45-28 45-65 0-40-10-65-43-65-34 0-45 26-45 65 0 36 10 65 43 65" id="ah"/><path fill="#666" d="M85 4C-2 5 27-109 22-190h50c7 57-23 150 33 157 60-5 35-97 40-157h50l1 190h-47c-2-12 1-28-3-38-12 25-28 42-61 42" id="ai"/><path fill="#666" d="M88-194c31-1 46 15 58 34l-1-101h50l1 261h-48c-2-10 0-23-3-31C134-8 116 4 84 4 32 4 16-41 15-95c0-56 19-97 73-99zm17 164c33 0 40-30 41-66 1-37-9-64-41-64s-38 30-39 65c0 43 13 65 39 65" id="aj"/><g id="h"><use transform="matrix(0.04320987654320988,0,0,0.04320987654320988,0,0)" xlink:href="#af"/><use transform="matrix(0.04320987654320988,0,0,0.04320987654320988,11.19135802469136,0)" xlink:href="#ag"/><use transform="matrix(0.04320987654320988,0,0,0.04320987654320988,15.512345679012347,0)" xlink:href="#ah"/><use transform="matrix(0.04320987654320988,0,0,0.04320987654320988,24.97530864197531,0)" xlink:href="#ai"/><use transform="matrix(0.04320987654320988,0,0,0.04320987654320988,34.43827160493827,0)" xlink:href="#aj"/></g><path fill="#666" d="M147 0H94L2-248h55l64 206c17-72 42-137 63-206h54" id="ak"/><path fill="#666" d="M24-248c93 1 206-16 204 79-1 75-69 88-152 82V0H24v-248zm52 121c47 0 100 7 100-41 0-47-54-39-100-39v80" id="al"/><g id="i"><use transform="matrix(0.04320987654320988,0,0,0.04320987654320988,0,0)" xlink:href="#ak"/><use transform="matrix(0.04320987654320988,0,0,0.04320987654320988,10.370370370370372,0)" xlink:href="#al"/><use transform="matrix(0.04320987654320988,0,0,0.04320987654320988,20.740740740740744,0)" xlink:href="#af"/></g><path fill="#666" d="M128 0H69L1-190h53L99-40l48-150h52" id="am"/><path fill="#666" d="M133-34C117-15 103 5 69 4 32 3 11-16 11-54c-1-60 55-63 116-61 1-26-3-47-28-47-18 1-26 9-28 27l-52-2c7-38 36-58 82-57s74 22 75 68l1 82c-1 14 12 18 25 15v27c-30 8-71 5-69-32zm-48 3c29 0 43-24 42-57-32 0-66-3-65 30 0 17 8 27 23 27" id="an"/><path fill="#666" d="M25-224v-37h50v37H25zM25 0v-190h50V0H25" id="ao"/><path fill="#666" d="M135-194c52 0 70 43 70 98 0 56-19 99-73 100-30 1-46-15-58-35L72 0H24l1-261h50v104c11-23 29-37 60-37zM114-30c31 0 40-27 40-66 0-37-7-63-39-63s-41 28-41 65c0 36 8 64 40 64" id="ap"/><path fill="#666" d="M115-3C79 11 28 4 28-45v-112H4v-33h27l15-45h31v45h36v33H77v99c-1 23 16 31 38 25v30" id="aq"/><path fill="#666" d="M123 10C108 53 80 86 19 72V37c35 8 53-11 59-39L3-190h52l48 148c12-52 28-100 44-148h51" id="ar"/><g id="j"><use transform="matrix(0.04320987654320988,0,0,0.04320987654320988,0,0)" xlink:href="#ac"/><use transform="matrix(0.04320987654320988,0,0,0.04320987654320988,10.629629629629632,0)" xlink:href="#am"/><use transform="matrix(0.04320987654320988,0,0,0.04320987654320988,19.271604938271608,0)" xlink:href="#an"/><use transform="matrix(0.04320987654320988,0,0,0.04320987654320988,27.913580246913583,0)" xlink:href="#ao"/><use transform="matrix(0.04320987654320988,0,0,0.04320987654320988,32.23456790123457,0)" xlink:href="#ag"/><use transform="matrix(0.04320987654320988,0,0,0.04320987654320988,36.55555555555556,0)" xlink:href="#an"/><use transform="matrix(0.04320987654320988,0,0,0.04320987654320988,45.19753086419754,0)" xlink:href="#ap"/><use transform="matrix(0.04320987654320988,0,0,0.04320987654320988,54.66049382716049,0)" xlink:href="#ao"/><use transform="matrix(0.04320987654320988,0,0,0.04320987654320988,58.98148148148148,0)" xlink:href="#ag"/><use transform="matrix(0.04320987654320988,0,0,0.04320987654320988,63.30246913580247,0)" xlink:href="#ao"/><use transform="matrix(0.04320987654320988,0,0,0.04320987654320988,67.62345679012346,0)" xlink:href="#aq"/><use transform="matrix(0.04320987654320988,0,0,0.04320987654320988,72.76543209876543,0)" xlink:href="#ar"/></g><path fill="#666" d="M210 0H11v-37l134-170H24v-41h178v36L68-41h142V0" id="as"/><path fill="#666" d="M135-194c87-1 58 113 63 194h-50c-7-57 23-157-34-157-59 0-34 97-39 157H25l-1-190h47c2 12-1 28 3 38 12-26 28-41 61-42" id="at"/><path fill="#666" d="M185-48c-13 30-37 53-82 52C43 2 14-33 14-96s30-98 90-98c62 0 83 45 84 108H66c0 31 8 55 39 56 18 0 30-7 34-22zm-45-69c5-46-57-63-70-21-2 6-4 13-4 21h74" id="au"/><g id="k"><use transform="matrix(0.04320987654320988,0,0,0.04320987654320988,0,0)" xlink:href="#as"/><use transform="matrix(0.04320987654320988,0,0,0.04320987654320988,9.462962962962964,0)" xlink:href="#ah"/><use transform="matrix(0.04320987654320988,0,0,0.04320987654320988,18.925925925925927,0)" xlink:href="#at"/><use transform="matrix(0.04320987654320988,0,0,0.04320987654320988,28.388888888888893,0)" xlink:href="#au"/></g><use transform="matrix(0.04320987654320988,0,0,0.04320987654320988,0,0)" xlink:href="#ac" id="l"/><path fill="#666" d="M182-130c37 4 62 22 62 59C244 23 116-4 24 0v-248c84 5 203-23 205 63 0 31-19 50-47 55zM76-148c40-3 101 13 101-30 0-44-60-28-101-31v61zm0 110c48-3 116 14 116-37 0-48-69-32-116-35v72" id="av"/><use transform="matrix(0.04320987654320988,0,0,0.04320987654320988,0,0)" xlink:href="#av" id="m"/><path fill="#666" d="M30-248c118-7 216 8 213 122C240-48 200 0 122 0H30v-248zM63-27c89 8 146-16 146-99s-60-101-146-95v194" id="aw"/><path fill="#666" d="M190 0L58-211 59 0H30v-248h39L202-35l-2-213h31V0h-41" id="ax"/><path fill="#666" d="M185-189c-5-48-123-54-124 2 14 75 158 14 163 119 3 78-121 87-175 55-17-10-28-26-33-46l33-7c5 56 141 63 141-1 0-78-155-14-162-118-5-82 145-84 179-34 5 7 8 16 11 25" id="ay"/><g id="n"><use transform="matrix(0.04320987654320988,0,0,0.04320987654320988,0,0)" xlink:href="#aw"/><use transform="matrix(0.04320987654320988,0,0,0.04320987654320988,11.19135802469136,0)" xlink:href="#ax"/><use transform="matrix(0.04320987654320988,0,0,0.04320987654320988,22.38271604938272,0)" xlink:href="#ay"/></g><path fill="#666" d="M233-177c-1 41-23 64-60 70L243 0h-38l-65-103H63V0H30v-248c88 3 205-21 203 71zM63-129c60-2 137 13 137-47 0-61-80-42-137-45v92" id="az"/><path fill="#666" d="M100-194c63 0 86 42 84 106H49c0 40 14 67 53 68 26 1 43-12 49-29l28 8c-11 28-37 45-77 45C44 4 14-33 15-96c1-61 26-98 85-98zm52 81c6-60-76-77-97-28-3 7-6 17-6 28h103" id="aA"/><path fill="#666" d="M135-143c-3-34-86-38-87 0 15 53 115 12 119 90S17 21 10-45l28-5c4 36 97 45 98 0-10-56-113-15-118-90-4-57 82-63 122-42 12 7 21 19 24 35" id="aB"/><path fill="#666" d="M100-194c62-1 85 37 85 99 1 63-27 99-86 99S16-35 15-95c0-66 28-99 85-99zM99-20c44 1 53-31 53-75 0-43-8-75-51-75s-53 32-53 75 10 74 51 75" id="aC"/><path fill="#666" d="M24 0v-261h32V0H24" id="aD"/><path fill="#666" d="M84 4C-5 8 30-112 23-190h32v120c0 31 7 50 39 49 72-2 45-101 50-169h31l1 190h-30c-1-10 1-25-2-33-11 22-28 36-60 37" id="aE"/><path fill="#666" d="M59-47c-2 24 18 29 38 22v24C64 9 27 4 27-40v-127H5v-23h24l9-43h21v43h35v23H59v120" id="aF"/><path fill="#666" d="M24-231v-30h32v30H24zM24 0v-190h32V0H24" id="aG"/><path fill="#666" d="M117-194c89-4 53 116 60 194h-32v-121c0-31-8-49-39-48C34-167 62-67 57 0H25l-1-190h30c1 10-1 24 2 32 11-22 29-35 61-36" id="aH"/><g id="o"><use transform="matrix(0.04320987654320988,0,0,0.04320987654320988,0,0)" xlink:href="#az"/><use transform="matrix(0.04320987654320988,0,0,0.04320987654320988,11.19135802469136,0)" xlink:href="#aA"/><use transform="matrix(0.04320987654320988,0,0,0.04320987654320988,19.833333333333336,0)" xlink:href="#aB"/><use transform="matrix(0.04320987654320988,0,0,0.04320987654320988,27.611111111111114,0)" xlink:href="#aC"/><use transform="matrix(0.04320987654320988,0,0,0.04320987654320988,36.25308641975309,0)" xlink:href="#aD"/><use transform="matrix(0.04320987654320988,0,0,0.04320987654320988,39.66666666666667,0)" xlink:href="#aE"/><use transform="matrix(0.04320987654320988,0,0,0.04320987654320988,48.308641975308646,0)" xlink:href="#aF"/><use transform="matrix(0.04320987654320988,0,0,0.04320987654320988,52.62962962962963,0)" xlink:href="#aG"/><use transform="matrix(0.04320987654320988,0,0,0.04320987654320988,56.043209876543216,0)" xlink:href="#aC"/><use transform="matrix(0.04320987654320988,0,0,0.04320987654320988,64.68518518518519,0)" xlink:href="#aH"/></g><path fill="#666" d="M27 0v-27h64v-190l-56 39v-29l58-41h29v221h61V0H27" id="aI"/><path fill="#666" d="M101-251c68 0 85 55 85 127S166 4 100 4C33 4 14-52 14-124c0-73 17-127 87-127zm-1 229c47 0 54-49 54-102s-4-102-53-102c-51 0-55 48-55 102 0 53 5 102 54 102" id="aJ"/><path fill="#666" d="M33 0v-38h34V0H33" id="aK"/><path fill="#666" d="M0 4l72-265h28L28 4H0" id="aL"/><path fill="#666" d="M110-160c48 1 74 30 74 79 0 53-28 85-80 85-65 0-83-55-86-122-5-90 50-162 133-122 14 7 22 21 27 39l-31 6c-5-40-67-38-82-6-9 19-15 44-15 74 11-20 30-34 60-33zm-7 138c34 0 49-23 49-58s-16-56-50-56c-29 0-50 16-49 49 1 36 15 65 50 65" id="aM"/><g id="p"><use transform="matrix(0.04320987654320988,0,0,0.04320987654320988,0,0)" xlink:href="#aI"/><use transform="matrix(0.04320987654320988,0,0,0.04320987654320988,8.641975308641976,0)" xlink:href="#aJ"/><use transform="matrix(0.04320987654320988,0,0,0.04320987654320988,17.283950617283953,0)" xlink:href="#aK"/><use transform="matrix(0.04320987654320988,0,0,0.04320987654320988,21.60493827160494,0)" xlink:href="#aJ"/><use transform="matrix(0.04320987654320988,0,0,0.04320987654320988,30.24691358024692,0)" xlink:href="#aK"/><use transform="matrix(0.04320987654320988,0,0,0.04320987654320988,34.567901234567906,0)" xlink:href="#aJ"/><use transform="matrix(0.04320987654320988,0,0,0.04320987654320988,43.20987654320988,0)" xlink:href="#aK"/><use transform="matrix(0.04320987654320988,0,0,0.04320987654320988,47.53086419753087,0)" xlink:href="#aJ"/><use transform="matrix(0.04320987654320988,0,0,0.04320987654320988,56.17283950617284,0)" xlink:href="#aL"/><use transform="matrix(0.04320987654320988,0,0,0.04320987654320988,60.49382716049384,0)" xlink:href="#aI"/><use transform="matrix(0.04320987654320988,0,0,0.04320987654320988,69.13580246913581,0)" xlink:href="#aM"/></g><path fill="#147eba" d="M30-248c87 1 191-15 191 75 0 78-77 80-158 76V0H30v-248zm33 125c57 0 124 11 124-50 0-59-68-47-124-48v98" id="aN"/><path fill="#147eba" d="M114-163C36-179 61-72 57 0H25l-1-190h30c1 12-1 29 2 39 6-27 23-49 58-41v29" id="aO"/><path fill="#147eba" d="M24-231v-30h32v30H24zM24 0v-190h32V0H24" id="aP"/><path fill="#147eba" d="M108 0H70L1-190h34L89-25l56-165h34" id="aQ"/><path fill="#147eba" d="M141-36C126-15 110 5 73 4 37 3 15-17 15-53c-1-64 63-63 125-63 3-35-9-54-41-54-24 1-41 7-42 31l-33-3c5-37 33-52 76-52 45 0 72 20 72 64v82c-1 20 7 32 28 27v20c-31 9-61-2-59-35zM48-53c0 20 12 33 32 33 41-3 63-29 60-74-43 2-92-5-92 41" id="aR"/><path fill="#147eba" d="M59-47c-2 24 18 29 38 22v24C64 9 27 4 27-40v-127H5v-23h24l9-43h21v43h35v23H59v120" id="aS"/><path fill="#147eba" d="M100-194c63 0 86 42 84 106H49c0 40 14 67 53 68 26 1 43-12 49-29l28 8c-11 28-37 45-77 45C44 4 14-33 15-96c1-61 26-98 85-98zm52 81c6-60-76-77-97-28-3 7-6 17-6 28h103" id="aT"/><g id="q"><use transform="matrix(0.05,0,0,0.05,0,0)" xlink:href="#aN"/><use transform="matrix(0.05,0,0,0.05,12,0)" xlink:href="#aO"/><use transform="matrix(0.05,0,0,0.05,17.95,0)" xlink:href="#aP"/><use transform="matrix(0.05,0,0,0.05,21.9,0)" xlink:href="#aQ"/><use transform="matrix(0.05,0,0,0.05,30.899999999999995,0)" xlink:href="#aR"/><use transform="matrix(0.05,0,0,0.05,40.9,0)" xlink:href="#aS"/><use transform="matrix(0.05,0,0,0.05,45.9,0)" xlink:href="#aT"/></g><path fill="#147eba" d="M185-189c-5-48-123-54-124 2 14 75 158 14 163 119 3 78-121 87-175 55-17-10-28-26-33-46l33-7c5 56 141 63 141-1 0-78-155-14-162-118-5-82 145-84 179-34 5 7 8 16 11 25" id="aU"/><path fill="#147eba" d="M84 4C-5 8 30-112 23-190h32v120c0 31 7 50 39 49 72-2 45-101 50-169h31l1 190h-30c-1-10 1-25-2-33-11 22-28 36-60 37" id="aV"/><path fill="#147eba" d="M115-194c53 0 69 39 70 98 0 66-23 100-70 100C84 3 66-7 56-30L54 0H23l1-261h32v101c10-23 28-34 59-34zm-8 174c40 0 45-34 45-75 0-40-5-75-45-74-42 0-51 32-51 76 0 43 10 73 51 73" id="aW"/><path fill="#147eba" d="M117-194c89-4 53 116 60 194h-32v-121c0-31-8-49-39-48C34-167 62-67 57 0H25l-1-190h30c1 10-1 24 2 32 11-22 29-35 61-36" id="aX"/><g id="r"><use transform="matrix(0.05,0,0,0.05,0,0)" xlink:href="#aU"/><use transform="matrix(0.05,0,0,0.05,12,0)" xlink:href="#aV"/><use transform="matrix(0.05,0,0,0.05,22,0)" xlink:href="#aW"/><use transform="matrix(0.05,0,0,0.05,32,0)" xlink:href="#aX"/><use transform="matrix(0.05,0,0,0.05,42,0)" xlink:href="#aT"/><use transform="matrix(0.05,0,0,0.05,52,0)" xlink:href="#aS"/></g><path fill="#248814" d="M30-248c87 1 191-15 191 75 0 78-77 80-158 76V0H30v-248zm33 125c57 0 124 11 124-50 0-59-68-47-124-48v98" id="aY"/><path fill="#248814" d="M84 4C-5 8 30-112 23-190h32v120c0 31 7 50 39 49 72-2 45-101 50-169h31l1 190h-30c-1-10 1-25-2-33-11 22-28 36-60 37" id="aZ"/><path fill="#248814" d="M115-194c53 0 69 39 70 98 0 66-23 100-70 100C84 3 66-7 56-30L54 0H23l1-261h32v101c10-23 28-34 59-34zm-8 174c40 0 45-34 45-75 0-40-5-75-45-74-42 0-51 32-51 76 0 43 10 73 51 73" id="ba"/><path fill="#248814" d="M24 0v-261h32V0H24" id="bb"/><path fill="#248814" d="M24-231v-30h32v30H24zM24 0v-190h32V0H24" id="bc"/><path fill="#248814" d="M96-169c-40 0-48 33-48 73s9 75 48 75c24 0 41-14 43-38l32 2c-6 37-31 61-74 61-59 0-76-41-82-99-10-93 101-131 147-64 4 7 5 14 7 22l-32 3c-4-21-16-35-41-35" id="bd"/><g id="s"><use transform="matrix(0.05,0,0,0.05,0,0)" xlink:href="#aY"/><use transform="matrix(0.05,0,0,0.05,12,0)" xlink:href="#aZ"/><use transform="matrix(0.05,0,0,0.05,22,0)" xlink:href="#ba"/><use transform="matrix(0.05,0,0,0.05,32,0)" xlink:href="#bb"/><use transform="matrix(0.05,0,0,0.05,35.95,0)" xlink:href="#bc"/><use transform="matrix(0.05,0,0,0.05,39.900000000000006,0)" xlink:href="#bd"/></g><path fill="#248814" d="M185-189c-5-48-123-54-124 2 14 75 158 14 163 119 3 78-121 87-175 55-17-10-28-26-33-46l33-7c5 56 141 63 141-1 0-78-155-14-162-118-5-82 145-84 179-34 5 7 8 16 11 25" id="be"/><path fill="#248814" d="M117-194c89-4 53 116 60 194h-32v-121c0-31-8-49-39-48C34-167 62-67 57 0H25l-1-190h30c1 10-1 24 2 32 11-22 29-35 61-36" id="bf"/><path fill="#248814" d="M100-194c63 0 86 42 84 106H49c0 40 14 67 53 68 26 1 43-12 49-29l28 8c-11 28-37 45-77 45C44 4 14-33 15-96c1-61 26-98 85-98zm52 81c6-60-76-77-97-28-3 7-6 17-6 28h103" id="bg"/><path fill="#248814" d="M59-47c-2 24 18 29 38 22v24C64 9 27 4 27-40v-127H5v-23h24l9-43h21v43h35v23H59v120" id="bh"/><g id="t"><use transform="matrix(0.05,0,0,0.05,0,0)" xlink:href="#be"/><use transform="matrix(0.05,0,0,0.05,12,0)" xlink:href="#aZ"/><use transform="matrix(0.05,0,0,0.05,22,0)" xlink:href="#ba"/><use transform="matrix(0.05,0,0,0.05,32,0)" xlink:href="#bf"/><use transform="matrix(0.05,0,0,0.05,42,0)" xlink:href="#bg"/><use transform="matrix(0.05,0,0,0.05,52,0)" xlink:href="#bh"/></g><path fill="#666" d="M143 4C61 4 22-44 18-125c-5-107 100-154 193-111 17 8 29 25 37 43l-32 9c-13-25-37-40-76-40-61 0-88 39-88 99 0 61 29 100 91 101 35 0 62-11 79-27v-45h-74v-28h105v86C228-13 192 4 143 4" id="bi"/><path fill="#666" d="M127-220V0H93v-220H8v-28h204v28h-85" id="bj"/><path fill="#666" d="M240 0l2-218c-23 76-54 145-80 218h-23L58-218 59 0H30v-248h44l77 211c21-75 51-140 76-211h43V0h-30" id="bk"/><g id="u"><use transform="matrix(0.043827160493827164,0,0,0.043827160493827164,0,0)" xlink:href="#bi"/><use transform="matrix(0.043827160493827164,0,0,0.043827160493827164,12.271604938271606,0)" xlink:href="#bj"/><use transform="matrix(0.043827160493827164,0,0,0.043827160493827164,21.869753086419756,0)" xlink:href="#bk"/></g><path fill="#666" d="M141-36C126-15 110 5 73 4 37 3 15-17 15-53c-1-64 63-63 125-63 3-35-9-54-41-54-24 1-41 7-42 31l-33-3c5-37 33-52 76-52 45 0 72 20 72 64v82c-1 20 7 32 28 27v20c-31 9-61-2-59-35zM48-53c0 20 12 33 32 33 41-3 63-29 60-74-43 2-92-5-92 41" id="bl"/><g id="v"><use transform="matrix(0.043827160493827164,0,0,0.043827160493827164,0,0)" xlink:href="#bk"/><use transform="matrix(0.043827160493827164,0,0,0.043827160493827164,13.104320987654322,0)" xlink:href="#bl"/><use transform="matrix(0.043827160493827164,0,0,0.043827160493827164,21.869753086419756,0)" xlink:href="#aG"/><use transform="matrix(0.043827160493827164,0,0,0.043827160493827164,25.3320987654321,0)" xlink:href="#aH"/></g><path fill="#666" d="M114-163C36-179 61-72 57 0H25l-1-190h30c1 12-1 29 2 39 6-27 23-49 58-41v29" id="bm"/><path fill="#666" d="M108 0H70L1-190h34L89-25l56-165h34" id="bn"/><g id="w"><use transform="matrix(0.043827160493827164,0,0,0.043827160493827164,0,0)" xlink:href="#ay"/><use transform="matrix(0.043827160493827164,0,0,0.043827160493827164,10.518518518518519,0)" xlink:href="#aA"/><use transform="matrix(0.043827160493827164,0,0,0.043827160493827164,19.28395061728395,0)" xlink:href="#bm"/><use transform="matrix(0.043827160493827164,0,0,0.043827160493827164,24.499382716049386,0)" xlink:href="#bn"/><use transform="matrix(0.043827160493827164,0,0,0.043827160493827164,32.38827160493827,0)" xlink:href="#aA"/><use transform="matrix(0.043827160493827164,0,0,0.043827160493827164,41.1537037037037,0)" xlink:href="#bm"/><use transform="matrix(0.043827160493827164,0,0,0.043827160493827164,46.36913580246913,0)" xlink:href="#aB"/></g><path fill="#666" d="M87 75C49 33 22-17 22-94c0-76 28-126 65-167h31c-38 41-64 92-64 168S80 34 118 75H87" id="bo"/><path fill="#666" d="M143 0L79-87 56-68V0H24v-261h32v163l83-92h37l-77 82L181 0h-38" id="bp"/><path fill="#666" d="M33-261c38 41 65 92 65 168S71 34 33 75H2C39 34 66-17 66-93S39-220 2-261h31" id="bq"/><g id="x"><use transform="matrix(0.043827160493827164,0,0,0.043827160493827164,0,0)" xlink:href="#bo"/><use transform="matrix(0.043827160493827164,0,0,0.043827160493827164,5.215432098765432,0)" xlink:href="#bj"/><use transform="matrix(0.043827160493827164,0,0,0.043827160493827164,13.060493827160494,0)" xlink:href="#bl"/><use transform="matrix(0.043827160493827164,0,0,0.043827160493827164,21.825925925925926,0)" xlink:href="#aB"/><use transform="matrix(0.043827160493827164,0,0,0.043827160493827164,29.714814814814815,0)" xlink:href="#bp"/><use transform="matrix(0.043827160493827164,0,0,0.043827160493827164,37.6037037037037,0)" xlink:href="#aB"/><use transform="matrix(0.043827160493827164,0,0,0.043827160493827164,45.49259259259259,0)" xlink:href="#bq"/></g><path fill="#666" d="M30-248c87 1 191-15 191 75 0 78-77 80-158 76V0H30v-248zm33 125c57 0 124 11 124-50 0-59-68-47-124-48v98" id="br"/><path fill="#666" d="M206 0h-36l-40-164L89 0H53L-1-190h32L70-26l43-164h34l41 164 42-164h31" id="bs"/><g id="y"><use transform="matrix(0.043827160493827164,0,0,0.043827160493827164,0,0)" xlink:href="#br"/><use transform="matrix(0.043827160493827164,0,0,0.043827160493827164,10.518518518518519,0)" xlink:href="#bm"/><use transform="matrix(0.043827160493827164,0,0,0.043827160493827164,15.733950617283952,0)" xlink:href="#aA"/><use transform="matrix(0.043827160493827164,0,0,0.043827160493827164,24.499382716049386,0)" xlink:href="#bn"/><use transform="matrix(0.043827160493827164,0,0,0.043827160493827164,32.38827160493827,0)" xlink:href="#aG"/><use transform="matrix(0.043827160493827164,0,0,0.043827160493827164,35.85061728395061,0)" xlink:href="#aA"/><use transform="matrix(0.043827160493827164,0,0,0.043827160493827164,44.61604938271604,0)" xlink:href="#bs"/></g><g id="z"><use transform="matrix(0.043827160493827164,0,0,0.043827160493827164,0,0)" xlink:href="#ay"/><use transform="matrix(0.043827160493827164,0,0,0.043827160493827164,10.518518518518519,0)" xlink:href="#aA"/><use transform="matrix(0.043827160493827164,0,0,0.043827160493827164,19.28395061728395,0)" xlink:href="#bm"/><use transform="matrix(0.043827160493827164,0,0,0.043827160493827164,24.499382716049386,0)" xlink:href="#bn"/><use transform="matrix(0.043827160493827164,0,0,0.043827160493827164,32.38827160493827,0)" xlink:href="#aA"/><use transform="matrix(0.043827160493827164,0,0,0.043827160493827164,41.1537037037037,0)" xlink:href="#bm"/></g><g id="A"><use transform="matrix(0.043827160493827164,0,0,0.043827160493827164,0,0)" xlink:href="#bo"/><use transform="matrix(0.043827160493827164,0,0,0.043827160493827164,5.215432098765432,0)" xlink:href="#bj"/><use transform="matrix(0.043827160493827164,0,0,0.043827160493827164,13.060493827160494,0)" xlink:href="#bl"/><use transform="matrix(0.043827160493827164,0,0,0.043827160493827164,21.825925925925926,0)" xlink:href="#aB"/><use transform="matrix(0.043827160493827164,0,0,0.043827160493827164,29.714814814814815,0)" xlink:href="#bp"/><use transform="matrix(0.043827160493827164,0,0,0.043827160493827164,37.6037037037037,0)" xlink:href="#bq"/></g><path fill="#666" d="M30 0v-248h187v28H63v79h144v27H63v87h162V0H30" id="bt"/><path fill="#666" d="M96-169c-40 0-48 33-48 73s9 75 48 75c24 0 41-14 43-38l32 2c-6 37-31 61-74 61-59 0-76-41-82-99-10-93 101-131 147-64 4 7 5 14 7 22l-32 3c-4-21-16-35-41-35" id="bu"/><g id="B"><use transform="matrix(0.04320987654320988,0,0,0.04320987654320988,0,0)" xlink:href="#bt"/><use transform="matrix(0.04320987654320988,0,0,0.04320987654320988,10.370370370370372,0)" xlink:href="#aD"/><use transform="matrix(0.04320987654320988,0,0,0.04320987654320988,13.783950617283953,0)" xlink:href="#bl"/><use transform="matrix(0.04320987654320988,0,0,0.04320987654320988,22.425925925925934,0)" xlink:href="#aB"/><use transform="matrix(0.04320987654320988,0,0,0.04320987654320988,30.203703703703713,0)" xlink:href="#aF"/><use transform="matrix(0.04320987654320988,0,0,0.04320987654320988,34.5246913580247,0)" xlink:href="#aG"/><use transform="matrix(0.04320987654320988,0,0,0.04320987654320988,37.93827160493828,0)" xlink:href="#bu"/></g><path fill="#666" d="M212-179c-10-28-35-45-73-45-59 0-87 40-87 99 0 60 29 101 89 101 43 0 62-24 78-52l27 14C228-24 195 4 139 4 59 4 22-46 18-125c-6-104 99-153 187-111 19 9 31 26 39 46" id="bv"/><g id="C"><use transform="matrix(0.04320987654320988,0,0,0.04320987654320988,0,0)" xlink:href="#bv"/><use transform="matrix(0.04320987654320988,0,0,0.04320987654320988,11.19135802469136,0)" xlink:href="#aC"/><use transform="matrix(0.04320987654320988,0,0,0.04320987654320988,19.833333333333336,0)" xlink:href="#aH"/><use transform="matrix(0.04320987654320988,0,0,0.04320987654320988,28.47530864197531,0)" xlink:href="#aF"/><use transform="matrix(0.04320987654320988,0,0,0.04320987654320988,32.7962962962963,0)" xlink:href="#bl"/><use transform="matrix(0.04320987654320988,0,0,0.04320987654320988,41.43827160493827,0)" xlink:href="#aG"/><use transform="matrix(0.04320987654320988,0,0,0.04320987654320988,44.851851851851855,0)" xlink:href="#aH"/><use transform="matrix(0.04320987654320988,0,0,0.04320987654320988,53.49382716049383,0)" xlink:href="#aA"/><use transform="matrix(0.04320987654320988,0,0,0.04320987654320988,62.1358024691358,0)" xlink:href="#bm"/></g><g id="D"><use transform="matrix(0.04320987654320988,0,0,0.04320987654320988,0,0)" xlink:href="#ay"/><use transform="matrix(0.04320987654320988,0,0,0.04320987654320988,10.370370370370372,0)" xlink:href="#aA"/><use transform="matrix(0.04320987654320988,0,0,0.04320987654320988,19.01234567901235,0)" xlink:href="#bm"/><use transform="matrix(0.04320987654320988,0,0,0.04320987654320988,24.154320987654323,0)" xlink:href="#bn"/><use transform="matrix(0.04320987654320988,0,0,0.04320987654320988,31.9320987654321,0)" xlink:href="#aG"/><use transform="matrix(0.04320987654320988,0,0,0.04320987654320988,35.345679012345684,0)" xlink:href="#bu"/><use transform="matrix(0.04320987654320988,0,0,0.04320987654320988,43.12345679012346,0)" xlink:href="#aA"/></g><path fill="#666" d="M30 0v-248h33v221h125V0H30" id="bw"/><path fill="#666" d="M85-194c31 0 48 13 60 33l-1-100h32l1 261h-30c-2-10 0-23-3-31C134-8 116 4 85 4 32 4 16-35 15-94c0-66 23-100 70-100zm9 24c-40 0-46 34-46 75 0 40 6 74 45 74 42 0 51-32 51-76 0-42-9-74-50-73" id="bx"/><g id="E"><use transform="matrix(0.04320987654320988,0,0,0.04320987654320988,0,0)" xlink:href="#bw"/><use transform="matrix(0.04320987654320988,0,0,0.04320987654320988,8.641975308641976,0)" xlink:href="#aC"/><use transform="matrix(0.04320987654320988,0,0,0.04320987654320988,17.283950617283953,0)" xlink:href="#bl"/><use transform="matrix(0.04320987654320988,0,0,0.04320987654320988,25.925925925925927,0)" xlink:href="#bx"/></g><path fill="#666" d="M160-131c35 5 61 23 61 61C221 17 115-2 30 0v-248c76 3 177-17 177 60 0 33-19 50-47 57zm-97-11c50-1 110 9 110-42 0-47-63-36-110-37v79zm0 115c55-2 124 14 124-45 0-56-70-42-124-44v89" id="by"/><g id="F"><use transform="matrix(0.04320987654320988,0,0,0.04320987654320988,0,0)" xlink:href="#by"/><use transform="matrix(0.04320987654320988,0,0,0.04320987654320988,10.370370370370372,0)" xlink:href="#bl"/><use transform="matrix(0.04320987654320988,0,0,0.04320987654320988,19.01234567901235,0)" xlink:href="#aD"/><use transform="matrix(0.04320987654320988,0,0,0.04320987654320988,22.425925925925934,0)" xlink:href="#bl"/><use transform="matrix(0.04320987654320988,0,0,0.04320987654320988,31.067901234567906,0)" xlink:href="#aH"/><use transform="matrix(0.04320987654320988,0,0,0.04320987654320988,39.70987654320988,0)" xlink:href="#bu"/><use transform="matrix(0.04320987654320988,0,0,0.04320987654320988,47.48765432098766,0)" xlink:href="#aA"/><use transform="matrix(0.04320987654320988,0,0,0.04320987654320988,56.12962962962963,0)" xlink:href="#bx"/></g><path fill="#666" d="M63-220v92h138v28H63V0H30v-248h175v28H63" id="bz"/><path fill="#666" d="M177-190C167-65 218 103 67 71c-23-6-38-20-44-43l32-5c15 47 100 32 89-28v-30C133-14 115 1 83 1 29 1 15-40 15-95c0-56 16-97 71-98 29-1 48 16 59 35 1-10 0-23 2-32h30zM94-22c36 0 50-32 50-73 0-42-14-75-50-75-39 0-46 34-46 75s6 73 46 73" id="bA"/><g id="G"><use transform="matrix(0.04320987654320988,0,0,0.04320987654320988,0,0)" xlink:href="#bz"/><use transform="matrix(0.04320987654320988,0,0,0.04320987654320988,9.462962962962964,0)" xlink:href="#bl"/><use transform="matrix(0.04320987654320988,0,0,0.04320987654320988,18.10493827160494,0)" xlink:href="#bm"/><use transform="matrix(0.04320987654320988,0,0,0.04320987654320988,23.246913580246915,0)" xlink:href="#bA"/><use transform="matrix(0.04320987654320988,0,0,0.04320987654320988,31.888888888888893,0)" xlink:href="#bl"/><use transform="matrix(0.04320987654320988,0,0,0.04320987654320988,40.53086419753087,0)" xlink:href="#aF"/><use transform="matrix(0.04320987654320988,0,0,0.04320987654320988,44.851851851851855,0)" xlink:href="#aA"/></g><g id="H"><use transform="matrix(0.04320987654320988,0,0,0.04320987654320988,0,0)" xlink:href="#ay"/><use transform="matrix(0.04320987654320988,0,0,0.04320987654320988,10.370370370370372,0)" xlink:href="#aA"/><use transform="matrix(0.04320987654320988,0,0,0.04320987654320988,19.01234567901235,0)" xlink:href="#bm"/><use transform="matrix(0.04320987654320988,0,0,0.04320987654320988,24.154320987654323,0)" xlink:href="#bn"/><use transform="matrix(0.04320987654320988,0,0,0.04320987654320988,31.9320987654321,0)" xlink:href="#aG"/><use transform="matrix(0.04320987654320988,0,0,0.04320987654320988,35.345679012345684,0)" xlink:href="#bu"/><use transform="matrix(0.04320987654320988,0,0,0.04320987654320988,43.12345679012346,0)" xlink:href="#aA"/></g><g id="I"><use transform="matrix(0.04320987654320987,0,0,0.04320987654320987,0,0)" xlink:href="#bt"/><use transform="matrix(0.04320987654320987,0,0,0.04320987654320987,10.370370370370368,0)" xlink:href="#aD"/><use transform="matrix(0.04320987654320987,0,0,0.04320987654320987,13.783950617283947,0)" xlink:href="#bl"/><use transform="matrix(0.04320987654320987,0,0,0.04320987654320987,22.42592592592592,0)" xlink:href="#aB"/><use transform="matrix(0.04320987654320987,0,0,0.04320987654320987,30.2037037037037,0)" xlink:href="#aF"/><use transform="matrix(0.04320987654320987,0,0,0.04320987654320987,34.52469135802468,0)" xlink:href="#aG"/><use transform="matrix(0.04320987654320987,0,0,0.04320987654320987,37.938271604938265,0)" xlink:href="#bu"/></g><g id="J"><use transform="matrix(0.04320987654320987,0,0,0.04320987654320987,0,0)" xlink:href="#bw"/><use transform="matrix(0.04320987654320987,0,0,0.04320987654320987,8.641975308641973,0)" xlink:href="#aC"/><use transform="matrix(0.04320987654320987,0,0,0.04320987654320987,17.283950617283946,0)" xlink:href="#bl"/><use transform="matrix(0.04320987654320987,0,0,0.04320987654320987,25.925925925925917,0)" xlink:href="#bx"/></g><g id="K"><use transform="matrix(0.04320987654320987,0,0,0.04320987654320987,0,0)" xlink:href="#by"/><use transform="matrix(0.04320987654320987,0,0,0.04320987654320987,10.370370370370368,0)" xlink:href="#bl"/><use transform="matrix(0.04320987654320987,0,0,0.04320987654320987,19.01234567901234,0)" xlink:href="#aD"/><use transform="matrix(0.04320987654320987,0,0,0.04320987654320987,22.42592592592592,0)" xlink:href="#bl"/><use transform="matrix(0.04320987654320987,0,0,0.04320987654320987,31.06790123456789,0)" xlink:href="#aH"/><use transform="matrix(0.04320987654320987,0,0,0.04320987654320987,39.709876543209866,0)" xlink:href="#bu"/><use transform="matrix(0.04320987654320987,0,0,0.04320987654320987,47.487654320987644,0)" xlink:href="#aG"/><use transform="matrix(0.04320987654320987,0,0,0.04320987654320987,50.90123456790123,0)" xlink:href="#aH"/><use transform="matrix(0.04320987654320987,0,0,0.04320987654320987,59.543209876543195,0)" xlink:href="#bA"/></g><path fill="#3a414a" d="M205 0l-28-72H64L36 0H1l101-248h38L239 0h-34zm-38-99l-47-123c-12 45-31 82-46 123h93" id="bB"/><path fill="#3a414a" d="M115-194c55 1 70 41 70 98S169 2 115 4C84 4 66-9 55-30l1 105H24l-1-265h31l2 30c10-21 28-34 59-34zm-8 174c40 0 45-34 45-75s-6-73-45-74c-42 0-51 32-51 76 0 43 10 73 51 73" id="bC"/><path fill="#3a414a" d="M24 0v-261h32V0H24" id="bD"/><path fill="#3a414a" d="M24-231v-30h32v30H24zM24 0v-190h32V0H24" id="bE"/><path fill="#3a414a" d="M96-169c-40 0-48 33-48 73s9 75 48 75c24 0 41-14 43-38l32 2c-6 37-31 61-74 61-59 0-76-41-82-99-10-93 101-131 147-64 4 7 5 14 7 22l-32 3c-4-21-16-35-41-35" id="bF"/><path fill="#3a414a" d="M141-36C126-15 110 5 73 4 37 3 15-17 15-53c-1-64 63-63 125-63 3-35-9-54-41-54-24 1-41 7-42 31l-33-3c5-37 33-52 76-52 45 0 72 20 72 64v82c-1 20 7 32 28 27v20c-31 9-61-2-59-35zM48-53c0 20 12 33 32 33 41-3 63-29 60-74-43 2-92-5-92 41" id="bG"/><path fill="#3a414a" d="M59-47c-2 24 18 29 38 22v24C64 9 27 4 27-40v-127H5v-23h24l9-43h21v43h35v23H59v120" id="bH"/><path fill="#3a414a" d="M100-194c62-1 85 37 85 99 1 63-27 99-86 99S16-35 15-95c0-66 28-99 85-99zM99-20c44 1 53-31 53-75 0-43-8-75-51-75s-53 32-53 75 10 74 51 75" id="bI"/><path fill="#3a414a" d="M117-194c89-4 53 116 60 194h-32v-121c0-31-8-49-39-48C34-167 62-67 57 0H25l-1-190h30c1 10-1 24 2 32 11-22 29-35 61-36" id="bJ"/><g id="L"><use transform="matrix(0.04320987654320987,0,0,0.04320987654320987,0,0)" xlink:href="#bB"/><use transform="matrix(0.04320987654320987,0,0,0.04320987654320987,10.370370370370368,0)" xlink:href="#bC"/><use transform="matrix(0.04320987654320987,0,0,0.04320987654320987,19.01234567901234,0)" xlink:href="#bC"/><use transform="matrix(0.04320987654320987,0,0,0.04320987654320987,27.654320987654316,0)" xlink:href="#bD"/><use transform="matrix(0.04320987654320987,0,0,0.04320987654320987,31.067901234567895,0)" xlink:href="#bE"/><use transform="matrix(0.04320987654320987,0,0,0.04320987654320987,34.481481481481474,0)" xlink:href="#bF"/><use transform="matrix(0.04320987654320987,0,0,0.04320987654320987,42.25925925925925,0)" xlink:href="#bG"/><use transform="matrix(0.04320987654320987,0,0,0.04320987654320987,50.90123456790123,0)" xlink:href="#bH"/><use transform="matrix(0.04320987654320987,0,0,0.04320987654320987,55.22222222222221,0)" xlink:href="#bE"/><use transform="matrix(0.04320987654320987,0,0,0.04320987654320987,58.6358024691358,0)" xlink:href="#bI"/><use transform="matrix(0.04320987654320987,0,0,0.04320987654320987,67.27777777777777,0)" xlink:href="#bJ"/></g><path fill="#3a414a" d="M30 0v-248h33v221h125V0H30" id="bK"/><path fill="#3a414a" d="M85-194c31 0 48 13 60 33l-1-100h32l1 261h-30c-2-10 0-23-3-31C134-8 116 4 85 4 32 4 16-35 15-94c0-66 23-100 70-100zm9 24c-40 0-46 34-46 75 0 40 6 74 45 74 42 0 51-32 51-76 0-42-9-74-50-73" id="bL"/><g id="M"><use transform="matrix(0.04320987654320987,0,0,0.04320987654320987,0,0)" xlink:href="#bK"/><use transform="matrix(0.04320987654320987,0,0,0.04320987654320987,8.641975308641973,0)" xlink:href="#bI"/><use transform="matrix(0.04320987654320987,0,0,0.04320987654320987,17.283950617283946,0)" xlink:href="#bG"/><use transform="matrix(0.04320987654320987,0,0,0.04320987654320987,25.925925925925917,0)" xlink:href="#bL"/></g><path fill="#3a414a" d="M160-131c35 5 61 23 61 61C221 17 115-2 30 0v-248c76 3 177-17 177 60 0 33-19 50-47 57zm-97-11c50-1 110 9 110-42 0-47-63-36-110-37v79zm0 115c55-2 124 14 124-45 0-56-70-42-124-44v89" id="bM"/><path fill="#3a414a" d="M100-194c63 0 86 42 84 106H49c0 40 14 67 53 68 26 1 43-12 49-29l28 8c-11 28-37 45-77 45C44 4 14-33 15-96c1-61 26-98 85-98zm52 81c6-60-76-77-97-28-3 7-6 17-6 28h103" id="bN"/><path fill="#3a414a" d="M114-163C36-179 61-72 57 0H25l-1-190h30c1 12-1 29 2 39 6-27 23-49 58-41v29" id="bO"/><g id="N"><use transform="matrix(0.04320987654320987,0,0,0.04320987654320987,0,0)" xlink:href="#bM"/><use transform="matrix(0.04320987654320987,0,0,0.04320987654320987,10.370370370370368,0)" xlink:href="#bG"/><use transform="matrix(0.04320987654320987,0,0,0.04320987654320987,19.01234567901234,0)" xlink:href="#bD"/><use transform="matrix(0.04320987654320987,0,0,0.04320987654320987,22.42592592592592,0)" xlink:href="#bG"/><use transform="matrix(0.04320987654320987,0,0,0.04320987654320987,31.06790123456789,0)" xlink:href="#bJ"/><use transform="matrix(0.04320987654320987,0,0,0.04320987654320987,39.709876543209866,0)" xlink:href="#bF"/><use transform="matrix(0.04320987654320987,0,0,0.04320987654320987,47.487654320987644,0)" xlink:href="#bN"/><use transform="matrix(0.04320987654320987,0,0,0.04320987654320987,56.12962962962962,0)" xlink:href="#bO"/></g><path fill="#333" d="M115-194c55 1 70 41 70 98S169 2 115 4C84 4 66-9 55-30l1 105H24l-1-265h31l2 30c10-21 28-34 59-34zm-8 174c40 0 45-34 45-75s-6-73-45-74c-42 0-51 32-51 76 0 43 10 73 51 73" id="bP"/><path fill="#333" d="M100-194c62-1 85 37 85 99 1 63-27 99-86 99S16-35 15-95c0-66 28-99 85-99zM99-20c44 1 53-31 53-75 0-43-8-75-51-75s-53 32-53 75 10 74 51 75" id="bQ"/><path fill="#333" d="M114-163C36-179 61-72 57 0H25l-1-190h30c1 12-1 29 2 39 6-27 23-49 58-41v29" id="bR"/><path fill="#333" d="M59-47c-2 24 18 29 38 22v24C64 9 27 4 27-40v-127H5v-23h24l9-43h21v43h35v23H59v120" id="bS"/><path fill="#333" d="M33-154v-36h34v36H33zM33 0v-36h34V0H33" id="bT"/><g id="O"><use transform="matrix(0.04320987654320988,0,0,0.04320987654320988,0,0)" xlink:href="#bP"/><use transform="matrix(0.04320987654320988,0,0,0.04320987654320988,8.641975308641976,0)" xlink:href="#bQ"/><use transform="matrix(0.04320987654320988,0,0,0.04320987654320988,17.283950617283953,0)" xlink:href="#bR"/><use transform="matrix(0.04320987654320988,0,0,0.04320987654320988,22.425925925925927,0)" xlink:href="#bS"/><use transform="matrix(0.04320987654320988,0,0,0.04320987654320988,26.746913580246915,0)" xlink:href="#bT"/></g><path fill="#333" d="M155-56V0h-30v-56H8v-25l114-167h33v167h35v25h-35zm-30-156c-27 46-58 90-88 131h88v-131" id="bU"/><path fill="#333" d="M126-127c33 6 58 20 58 59 0 88-139 92-164 29-3-8-5-16-6-25l32-3c6 27 21 44 54 44 32 0 52-15 52-46 0-38-36-46-79-43v-28c39 1 72-4 72-42 0-27-17-43-46-43-28 0-47 15-49 41l-32-3c6-42 35-63 81-64 48-1 79 21 79 65 0 36-21 52-52 59" id="bV"/><g id="P"><use transform="matrix(0.04320987654320988,0,0,0.04320987654320988,0,0)" xlink:href="#bU"/><use transform="matrix(0.04320987654320988,0,0,0.04320987654320988,8.641975308641976,0)" xlink:href="#bU"/><use transform="matrix(0.04320987654320988,0,0,0.04320987654320988,17.283950617283953,0)" xlink:href="#bV"/></g><g id="Q"><use transform="matrix(0.04320987654320988,0,0,0.04320987654320988,0,0)" xlink:href="#bU"/><use transform="matrix(0.04320987654320988,0,0,0.04320987654320988,8.641975308641976,0)" xlink:href="#bU"/><use transform="matrix(0.04320987654320988,0,0,0.04320987654320988,17.283950617283953,0)" xlink:href="#bU"/></g><path fill="#666" d="M33 0v-248h34V0H33" id="bW"/><g id="R"><use transform="matrix(0.04320987654320987,0,0,0.04320987654320987,0,0)" xlink:href="#bW"/><use transform="matrix(0.04320987654320987,0,0,0.04320987654320987,4.320987654320986,0)" xlink:href="#aH"/><use transform="matrix(0.04320987654320987,0,0,0.04320987654320987,12.962962962962958,0)" xlink:href="#aF"/><use transform="matrix(0.04320987654320987,0,0,0.04320987654320987,17.283950617283946,0)" xlink:href="#aA"/><use transform="matrix(0.04320987654320987,0,0,0.04320987654320987,25.925925925925917,0)" xlink:href="#bm"/><use transform="matrix(0.04320987654320987,0,0,0.04320987654320987,31.06790123456789,0)" xlink:href="#aH"/><use transform="matrix(0.04320987654320987,0,0,0.04320987654320987,39.709876543209866,0)" xlink:href="#aA"/><use transform="matrix(0.04320987654320987,0,0,0.04320987654320987,48.35185185185184,0)" xlink:href="#aF"/></g><path fill="#666" d="M179-190L93 31C79 59 56 82 12 73V49c39 6 53-20 64-50L1-190h34L92-34l54-156h33" id="bX"/><g id="S"><use transform="matrix(0.04320987654320987,0,0,0.04320987654320987,0,0)" xlink:href="#bA"/><use transform="matrix(0.04320987654320987,0,0,0.04320987654320987,8.641975308641973,0)" xlink:href="#bl"/><use transform="matrix(0.04320987654320987,0,0,0.04320987654320987,17.283950617283946,0)" xlink:href="#aF"/><use transform="matrix(0.04320987654320987,0,0,0.04320987654320987,21.604938271604933,0)" xlink:href="#aA"/><use transform="matrix(0.04320987654320987,0,0,0.04320987654320987,30.2469135802469,0)" xlink:href="#bs"/><use transform="matrix(0.04320987654320987,0,0,0.04320987654320987,41.43827160493826,0)" xlink:href="#bl"/><use transform="matrix(0.04320987654320987,0,0,0.04320987654320987,50.08024691358023,0)" xlink:href="#bX"/></g><path fill="#3a414a" d="M137 0h-34L2-248h35l83 218 83-218h36" id="bY"/><path fill="#3a414a" d="M30-248c87 1 191-15 191 75 0 78-77 80-158 76V0H30v-248zm33 125c57 0 124 11 124-50 0-59-68-47-124-48v98" id="bZ"/><path fill="#3a414a" d="M212-179c-10-28-35-45-73-45-59 0-87 40-87 99 0 60 29 101 89 101 43 0 62-24 78-52l27 14C228-24 195 4 139 4 59 4 22-46 18-125c-6-104 99-153 187-111 19 9 31 26 39 46" id="ca"/><g id="T"><use transform="matrix(0.043827160493827164,0,0,0.043827160493827164,0,0)" xlink:href="#bY"/><use transform="matrix(0.043827160493827164,0,0,0.043827160493827164,10.518518518518519,0)" xlink:href="#bZ"/><use transform="matrix(0.043827160493827164,0,0,0.043827160493827164,21.037037037037038,0)" xlink:href="#ca"/></g><path fill="#3a414a" d="M190 0L58-211 59 0H30v-248h39L202-35l-2-213h31V0h-41" id="cb"/><path fill="#3a414a" d="M127-220V0H93v-220H8v-28h204v28h-85" id="cc"/><g id="U"><use transform="matrix(0.043827160493827164,0,0,0.043827160493827164,0,0)" xlink:href="#cb"/><use transform="matrix(0.043827160493827164,0,0,0.043827160493827164,11.351234567901235,0)" xlink:href="#bB"/><use transform="matrix(0.043827160493827164,0,0,0.043827160493827164,20.68641975308642,0)" xlink:href="#cc"/></g><path fill="#3a414a" d="M143 4C61 4 22-44 18-125c-5-107 100-154 193-111 17 8 29 25 37 43l-32 9c-13-25-37-40-76-40-61 0-88 39-88 99 0 61 29 100 91 101 35 0 62-11 79-27v-45h-74v-28h105v86C228-13 192 4 143 4" id="cd"/><path fill="#3a414a" d="M206 0h-36l-40-164L89 0H53L-1-190h32L70-26l43-164h34l41 164 42-164h31" id="ce"/><path fill="#3a414a" d="M179-190L93 31C79 59 56 82 12 73V49c39 6 53-20 64-50L1-190h34L92-34l54-156h33" id="cf"/><g id="V"><use transform="matrix(0.043827160493827164,0,0,0.043827160493827164,0,0)" xlink:href="#cd"/><use transform="matrix(0.043827160493827164,0,0,0.043827160493827164,12.271604938271606,0)" xlink:href="#bG"/><use transform="matrix(0.043827160493827164,0,0,0.043827160493827164,21.037037037037038,0)" xlink:href="#bH"/><use transform="matrix(0.043827160493827164,0,0,0.043827160493827164,25.419753086419753,0)" xlink:href="#bN"/><use transform="matrix(0.043827160493827164,0,0,0.043827160493827164,34.18518518518518,0)" xlink:href="#ce"/><use transform="matrix(0.043827160493827164,0,0,0.043827160493827164,45.53641975308642,0)" xlink:href="#bG"/><use transform="matrix(0.043827160493827164,0,0,0.043827160493827164,54.30185185185184,0)" xlink:href="#cf"/></g></defs></g></svg>